<svg xmlns="http://www.w3.org/2000/svg" version="1.1" xmlns:xlink="http://www.w3.org/1999/xlink" xmlns:svgjs="http://svgjs.dev/svgjs" viewBox="0 0 17.279211913450972 14.527385735460683"><g transform="matrix(0.8457003288913573,0,0,0.8457003288913573,2.453873778155999,10.319109460861288)"><rect width="19.929761717526944" height="19.929761717526944" x="-2.650549804075971" y="-13.577764156487078" fill="#ffffff"></rect><g clip-path="url(#SvgjsClipPath15136)"><g clip-path="url(#a332102d5-3572-46ea-b85c-42b87881644743e4e003-6fd4-465f-a5f9-2e88c8287742)"><path d=" M 10.930544604444488 -3.6745709994050433 C 10.930544604444488 -3.3691052868860716 10.683076380810245 -3.1214362640981603 10.377443335663216 -3.1214362640981603 L 3.9543469411503396 -3.1214362640981603 C 3.648747362528921 -3.1214362640981603 3.4010950730038156 -3.3691052868860716 3.4010950730038156 -3.6745709994050433 L 3.4010950730038156 -8.84938272187175 C 3.4010950730038156 -9.154915367441946 3.648747362528921 -9.402567656967049 3.9543469411503382 -9.402567656967049 L 10.377443335663212 -9.402567656967049 C 10.683076380810245 -9.402567656967049 10.930544604444485 -9.154915367441946 10.930544604444485 -8.84938272187175 L 10.930544604444485 -3.6745709994050433" fill="#abdc57" transform="matrix(1,0,0,1,0,0)" fill-rule="nonzero"></path></g><g clip-path="url(#b332102d5-3572-46ea-b85c-42b87881644743e4e003-6fd4-465f-a5f9-2e88c8287742)"><path d=" M 10.930544604444488 -3.6745709994050433 C 10.930544604444488 -3.3691052868860716 10.683076380810245 -3.1214362640981603 10.377443335663216 -3.1214362640981603 L 3.9543469411503396 -3.1214362640981603 C 3.648747362528921 -3.1214362640981603 3.4010950730038156 -3.3691052868860716 3.4010950730038156 -3.6745709994050433 L 3.4010950730038156 -8.84938272187175 C 3.4010950730038156 -9.154915367441946 3.648747362528921 -9.402567656967049 3.9543469411503382 -9.402567656967049 L 10.377443335663212 -9.402567656967049 C 10.683076380810245 -9.402567656967049 10.930544604444485 -9.154915367441946 10.930544604444485 -8.84938272187175 Z" fill="none" transform="matrix(1,0,0,1,0,0)" fill-rule="nonzero" stroke-dasharray="none" stroke-miterlimit="4" stroke-linejoin="miter" stroke-linecap="butt" stroke-width="0.29746721289782363" stroke="#231f20"></path></g><g clip-path="url(#a332102d5-3572-46ea-b85c-42b87881644743e4e003-6fd4-465f-a5f9-2e88c8287742)"><path d=" M 10.365244787077824 -4.063117361754567 C 10.365244787077824 -3.8034171230093214 10.154941140135154 -3.592946143438594 9.895240901389908 -3.592946143438594 L 4.4365828419492574 -3.592946143438594 C 4.1768658699412065 -3.592946143438594 3.966261024268033 -3.8034171230093214 3.966261024268033 -4.063117361754567 L 3.966261024268033 -8.460853092785035 C 3.966261024268033 -8.72055333153028 4.1768658699412065 -8.931007577838201 4.4365828419492574 -8.931007577838201 L 9.895240901389908 -8.931007577838201 C 10.154941140135154 -8.931007577838201 10.365244787077824 -8.72055333153028 10.365244787077824 -8.460853092785035 L 10.365244787077824 -4.063117361754567" fill="#e6f0c4" transform="matrix(1,0,0,1,0,0)" fill-rule="nonzero"></path></g><g clip-path="url(#a332102d5-3572-46ea-b85c-42b87881644743e4e003-6fd4-465f-a5f9-2e88c8287742)"><path d=" M 10.365244787077824 -4.063117361754567 C 10.365244787077824 -3.8034171230093214 10.154941140135154 -3.592946143438594 9.895240901389908 -3.592946143438594 L 4.4365828419492574 -3.592946143438594 C 4.1768658699412065 -3.592946143438594 3.966261024268033 -3.8034171230093214 3.966261024268033 -4.063117361754567 L 3.966261024268033 -8.460853092785035 C 3.966261024268033 -8.72055333153028 4.1768658699412065 -8.931007577838201 4.4365828419492574 -8.931007577838201 L 9.895240901389908 -8.931007577838201 C 10.154941140135154 -8.931007577838201 10.365244787077824 -8.72055333153028 10.365244787077824 -8.460853092785035 Z" fill="none" transform="matrix(1,0,0,1,0,0)" fill-rule="nonzero" stroke-dasharray="none" stroke-miterlimit="4" stroke-linejoin="miter" stroke-linecap="butt" stroke-width="0.14874197308031467" stroke="#231f20"></path></g><g clip-path="url(#a332102d5-3572-46ea-b85c-42b87881644743e4e003-6fd4-465f-a5f9-2e88c8287742)"><path d=" M 11.631551183165783 -0.7518389181758565 C 11.689331139634039 -0.6613454329223583 11.507791971454456 -0.3987336064489124 11.355000548775145 -0.3987336064489124 L 2.982780236122863 -0.3987336064489124 C 2.8301059462831972 -0.3987336064489124 2.6293904589282224 -0.6439093730787668 2.706079002366976 -0.7518389181758565 C 2.783052011273427 -0.8597684632729461 4.140420823550282 -2.703707091415409 4.140420823550282 -2.703707091415409 L 10.197326494822118 -2.703707091415409 C 10.197326494822118 -2.703707091415409 11.573737760171916 -0.8424830027946051 11.631551183165783 -0.7518389181758565" fill="#abdc57" transform="matrix(1,0,0,1,0,0)" fill-rule="nonzero"></path></g><g clip-path="url(#c332102d5-3572-46ea-b85c-42b87881644743e4e003-6fd4-465f-a5f9-2e88c8287742)"><path d=" M 11.631551183165783 -0.7518389181758565 C 11.689331139634039 -0.6613454329223583 11.507791971454456 -0.3987336064489124 11.355000548775145 -0.3987336064489124 L 2.982780236122863 -0.3987336064489124 C 2.8301059462831972 -0.3987336064489124 2.6293904589282224 -0.6439093730787668 2.706079002366976 -0.7518389181758565 C 2.783052011273427 -0.8597684632729461 4.140420823550282 -2.703707091415409 4.140420823550282 -2.703707091415409 L 10.197326494822118 -2.703707091415409 C 10.197326494822118 -2.703707091415409 11.573737760171916 -0.8424830027946051 11.631551183165783 -0.7518389181758565 Z" fill="none" transform="matrix(1,0,0,1,0,0)" fill-rule="nonzero" stroke-dasharray="none" stroke-miterlimit="4" stroke-linejoin="miter" stroke-linecap="butt" stroke-width="0.29746721289782363" stroke="#231f20"></path></g><g clip-path="url(#a332102d5-3572-46ea-b85c-42b87881644743e4e003-6fd4-465f-a5f9-2e88c8287742)"><path d=" M 9.859498652036823 -4.274307871625941 C 9.902201938717099 -4.238582355535664 9.905414725175802 -4.171013440326045 9.865606292960923 -4.123223241752822 L 9.807491671236555 -4.053094137333922 C 9.767683239021672 -4.0052872054978925 9.700582855170616 -3.9955651798077527 9.657611836285447 -4.031290695898029 L 4.472308358039536 -8.333446029782051 C 4.429303872628758 -8.369037679769882 4.4267102168938655 -8.436589861716694 4.466217450378242 -8.48453065965517 L 4.524315338839807 -8.554525897971622 C 4.5641070377918815 -8.602316096544847 4.631073555540494 -8.61218872160024 4.674078040951273 -8.576463205509961 L 9.859498652036827 -4.274307871625941" fill="#f2a738" transform="matrix(1,0,0,1,0,0)" fill-rule="nonzero"></path></g><g clip-path="url(#a332102d5-3572-46ea-b85c-42b87881644743e4e003-6fd4-465f-a5f9-2e88c8287742)"><path d=" M 9.859498652036823 -4.274307871625941 C 9.902201938717099 -4.238582355535664 9.905414725175802 -4.171013440326045 9.865606292960923 -4.123223241752822 L 9.807491671236555 -4.053094137333922 C 9.767683239021672 -4.0052872054978925 9.700582855170616 -3.9955651798077527 9.657611836285447 -4.031290695898029 L 4.472308358039536 -8.333446029782051 C 4.429303872628758 -8.369037679769882 4.4267102168938655 -8.436589861716694 4.466217450378242 -8.48453065965517 L 4.524315338839807 -8.554525897971622 C 4.5641070377918815 -8.602316096544847 4.631073555540494 -8.61218872160024 4.674078040951273 -8.576463205509961 Z" fill="none" transform="matrix(1,0,0,1,0,0)" fill-rule="nonzero" stroke-dasharray="none" stroke-miterlimit="4" stroke-linejoin="miter" stroke-linecap="butt" stroke-width="0.07436261990875447" stroke="#231f20"></path></g><g clip-path="url(#a332102d5-3572-46ea-b85c-42b87881644743e4e003-6fd4-465f-a5f9-2e88c8287742)"><path d=" M 8.680941486102217 -6.095589661929418 C 8.696620553351206 -6.082370384312876 8.677444234175816 -6.033124391875552 8.63797046721705 -5.98533419330233 L 8.579554646762176 -5.915188355620623 C 8.540047413277799 -5.867398157047401 8.495018203067525 -5.839369941847769 8.47932240255573 -5.85243862009906 L 6.572918504359403 -7.434066620498582 C 6.557239437110414 -7.447152032012678 6.576399023022999 -7.496531890552447 6.6160568558726265 -7.544305355862864 L 6.67415474433419 -7.614484660070182 C 6.71381257718382 -7.6621075260153475 6.758841787394093 -7.690303073843037 6.774537587905887 -7.677217662328941 L 8.680941486102217 -6.09558966192942" fill="#f1ca8b" transform="matrix(1,0,0,1,0,0)" fill-rule="nonzero"></path></g><g clip-path="url(#a332102d5-3572-46ea-b85c-42b87881644743e4e003-6fd4-465f-a5f9-2e88c8287742)"><path d=" M 8.680941486102217 -6.095589661929418 C 8.696620553351206 -6.082370384312876 8.677444234175816 -6.033124391875552 8.63797046721705 -5.98533419330233 L 8.579554646762176 -5.915188355620623 C 8.540047413277799 -5.867398157047401 8.495018203067525 -5.839369941847769 8.47932240255573 -5.85243862009906 L 6.572918504359403 -7.434066620498582 C 6.557239437110414 -7.447152032012678 6.576399023022999 -7.496531890552447 6.6160568558726265 -7.544305355862864 L 6.67415474433419 -7.614484660070182 C 6.71381257718382 -7.6621075260153475 6.758841787394093 -7.690303073843037 6.774537587905887 -7.677217662328941 Z" fill="none" transform="matrix(1,0,0,1,0,0)" fill-rule="nonzero" stroke-dasharray="none" stroke-miterlimit="4" stroke-linejoin="miter" stroke-linecap="butt" stroke-width="0.07436261990875447" stroke="#231f20"></path></g><g clip-path="url(#a332102d5-3572-46ea-b85c-42b87881644743e4e003-6fd4-465f-a5f9-2e88c8287742)"><path d=" M 8.499067652666517 -4.559559802675567 C 8.526978735026507 -4.536200167798739 8.517691774169318 -4.478654477009764 8.47818454068494 -4.430881011699347 L 8.420069918960568 -4.36058457465239 C 8.38026148674569 -4.312944975444419 8.325359651480023 -4.293182992070828 8.297482035645642 -4.316425494108015 L 4.910820243127029 -7.126141118347164 C 4.882792027927396 -7.149383620384351 4.892095722047392 -7.207046444012967 4.931602955531771 -7.254819909323384 L 4.989968576198227 -7.32484861416545 C 5.02949254294541 -7.372772678841118 5.084394378211076 -7.392517928951904 5.11257319277596 -7.3692921601775225 L 8.499067652666518 -4.559559802675567" fill="#f4dbb0" transform="matrix(1,0,0,1,0,0)" fill-rule="nonzero"></path></g><g clip-path="url(#a332102d5-3572-46ea-b85c-42b87881644743e4e003-6fd4-465f-a5f9-2e88c8287742)"><path d=" M 8.499067652666517 -4.559559802675567 C 8.526978735026507 -4.536200167798739 8.517691774169318 -4.478654477009764 8.47818454068494 -4.430881011699347 L 8.420069918960568 -4.36058457465239 C 8.38026148674569 -4.312944975444419 8.325359651480023 -4.293182992070828 8.297482035645642 -4.316425494108015 L 4.910820243127029 -7.126141118347164 C 4.882792027927396 -7.149383620384351 4.892095722047392 -7.207046444012967 4.931602955531771 -7.254819909323384 L 4.989968576198227 -7.32484861416545 C 5.02949254294541 -7.372772678841118 5.084394378211076 -7.392517928951904 5.11257319277596 -7.3692921601775225 Z" fill="none" transform="matrix(1,0,0,1,0,0)" fill-rule="nonzero" stroke-dasharray="none" stroke-miterlimit="4" stroke-linejoin="miter" stroke-linecap="butt" stroke-width="0.07436261990875447" stroke="#231f20"></path></g><g clip-path="url(#a332102d5-3572-46ea-b85c-42b87881644743e4e003-6fd4-465f-a5f9-2e88c8287742)"><path d=" M 13.64369256903165 -6.557996646303524 C 13.558854926606497 -6.942828224310169 12.441909634322663 -6.994550739642744 10.930544604444488 -6.843616709134876 L 10.930544604444488 -6.695477133515569 C 12.476196089811644 -6.8503769473083995 13.442508550318117 -6.779427913012018 13.498447847877738 -6.526052847607346 C 13.500221573735146 -6.518121281037422 13.50107497013824 -6.510055848365049 13.50107497013824 -6.501806349801814 C 13.50107497013824 -6.225155315834344 12.539062958172849 -5.721132706862338 10.930544604444488 -5.188948016588255 C 9.990971897901609 -4.8780272603946075 8.830988653681384 -4.557535077876072 7.51212307912056 -4.2670456355682465 C 5.905060519256297 -3.913204060277849 4.493074337181474 -3.6986668978453254 3.408072843593817 -3.6055630235941294 C 2.032615374223945 -3.487626987339201 1.1829839552619723 -3.5650685276042138 1.1306757757311965 -3.8022123280873075 C 1.1239992038717024 -3.832449333977298 1.134541159439325 -3.869346178463978 1.1618498443383094 -3.9122167977723112 C 1.303446714200569 -4.133848863634474 1.7970277671817865 -4.41418121541921 2.531266605835305 -4.713539287014083 C 2.7903142473311258 -4.705406921290487 3.0833638788482314 -4.705406921290487 3.4010950730038183 -4.71236795861768 C 4.466635781948387 -4.7356104606548675 5.8106514505062545 -4.837449098090664 7.092703846894428 -4.982108155046376 C 8.154563238021733 -5.1019183167355475 9.722218963978452 -5.320387795927424 10.930544604444488 -5.579234638269576 C 11.958803603857845 -5.799427643530445 12.727161565372288 -6.048820192387348 12.699735747633667 -6.291904301166483 C 12.673263725874968 -6.526052847607346 11.92552114413721 -6.601436196547251 10.930544604444488 -6.593655229342579 L 10.930544604444488 -6.4449969225762915 C 11.932063849894256 -6.451957959903485 12.496945335690778 -6.379904530261923 12.55040811035515 -6.275053905521091 C 12.521024500868254 -6.1578373995668105 11.959088069325546 -5.954260524272051 10.930544604444488 -5.731005331917731 C 10.006650965150598 -5.530423710665202 8.7064931784066 -5.313995689535627 7.07600405061429 -5.129963265197985 C 5.566998410791725 -4.959668849623864 4.327063636885625 -4.879332454893457 3.4010950730038187 -4.8600892026668445 C 3.232142337829727 -4.856485562670175 3.063150621095991 -4.85502965119741 2.8941608763039075 -4.8557218210745425 C 3.0545157337711184 -4.916246032642943 3.223889819890923 -4.9771551092558735 3.4010950730038196 -5.0383319180736965 L 3.4010950730038196 -5.195122590563578 C 3.076168575841759 -5.0832607287071365 2.777094969714584 -4.971850664946451 2.508157969900565 -4.862264526831592 C 1.8733481788388144 -4.882310975672881 1.519238871343526 -4.9450607111944445 1.4819738950751202 -5.027990761659743 C 1.5078267861100043 -5.153272700286396 2.1772074981284346 -5.384593325313088 3.4010950730038196 -5.6327476127223655 L 3.4010950730038196 -5.78314617882045 C 2.3304507189034958 -5.568324550920226 1.5389673881915056 -5.337171258521592 1.3747136804902604 -5.130917061177914 L 1.3346207828076824 -5.009333173631331 L 1.4008510369928422 -4.899663369202444 C 1.5101527096400034 -4.812600202824125 1.793329716101716 -4.757982833026157 2.196601349720299 -4.730105217191777 C 1.5832101350499095 -4.458925960161786 1.1719400018101778 -4.204295900046684 1.0364842393976288 -3.9922352605094105 C 0.9871713139090825 -3.915111652237706 0.9699695197447713 -3.840297234233197 0.9854310545772846 -3.7702852626539363 C 1.0653993175259653 -3.4074579252368524 2.0632707116840807 -3.3406252735906863 3.444149758203015 -3.4606027679079157 C 4.6390720551616464 -3.5646167295084608 6.12075227682242 -3.808353435537019 7.5440668778167375 -4.121784181151529 C 8.72146944861775 -4.381216687691882 9.914684952770191 -4.700453875499987 10.930544604444488 -5.033880870167367 C 12.562171594107593 -5.5692783469001546 13.735491248783998 -6.14083640455617 13.643692569031654 -6.557996646303524" fill="#231f20" transform="matrix(1,0,0,1,0,0)" fill-rule="nonzero"></path></g></g><g><path d=" M 0.273193359375 0.93896484375 L 0.38818359375 0.93896484375 L 0.38818359375 0.223388671875 L 0.25341796875 0.223388671875 L 0.25341796875 0.366943359375 L 0.0146484375 0.366943359375 L 0.0146484375 0.029296875 L 1.024658203125 0.029296875 L 1.024658203125 0.366943359375 L 0.784423828125 0.366943359375 L 0.784423828125 0.223388671875 L 0.63134765625 0.223388671875 L 0.63134765625 0.93896484375 L 0.74853515625 0.93896484375 L 0.74853515625 1.1396484375 L 0.273193359375 1.1396484375 L 0.273193359375 0.93896484375 M 1.22900390625 0.807861328125 L 1.231201171875 0.83056640625 Q 1.2392578125 0.863525390625 1.2586669921875 0.888427734375 Q 1.278076171875 0.913330078125 1.304443359375 0.93017578125 Q 1.330810546875 0.947021484375 1.363037109375 0.9554443359375 Q 1.395263671875 0.9638671875 1.42822265625 0.9638671875 Q 1.461181640625 0.9638671875 1.4908447265625 0.9598388671875 Q 1.5205078125 0.955810546875 1.54833984375 0.9488525390625 Q 1.576171875 0.94189453125 1.6025390625 0.9327392578125 Q 1.62890625 0.923583984375 1.656005859375 0.913330078125 L 1.736572265625 1.0634765625 Q 1.69482421875 1.089111328125 1.6600341796875 1.1070556640625 Q 1.625244140625 1.125 1.590087890625 1.13671875 Q 1.554931640625 1.1484375 1.515380859375 1.1539306640625 Q 1.475830078125 1.159423828125 1.423095703125 1.159423828125 Q 1.32421875 1.159423828125 1.247314453125 1.1268310546875 Q 1.17041015625 1.09423828125 1.1180419921875 1.03857421875 Q 1.065673828125 0.98291015625 1.0382080078125 0.908203125 Q 1.0107421875 0.83349609375 1.0107421875 0.75 Q 1.0107421875 0.66650390625 1.0396728515625 0.59326171875 Q 1.068603515625 0.52001953125 1.121337890625 0.4654541015625 Q 1.174072265625 0.410888671875 1.247314453125 0.37939453125 Q 1.320556640625 0.347900390625 1.409912109375 0.347900390625 Q 1.499267578125 0.347900390625 1.5684814453125 0.3775634765625 Q 1.6376953125 0.4072265625 1.685302734375 0.4595947265625 Q 1.73291015625 0.511962890625 1.758544921875 0.5826416015625 Q 1.7841796875 0.6533203125 1.786376953125 0.734619140625 Q 1.78857421875 0.7529296875 1.7889404296875 0.7708740234375 Q 1.789306640625 0.788818359375 1.787841796875 0.807861328125 L 1.22900390625 0.807861328125 M 1.404052734375 0.531005859375 Q 1.363037109375 0.531005859375 1.3341064453125 0.5408935546875 Q 1.30517578125 0.55078125 1.285400390625 0.5679931640625 Q 1.265625 0.585205078125 1.25390625 0.607177734375 Q 1.2421875 0.629150390625 1.235595703125 0.6533203125 L 1.552734375 0.6533203125 Q 1.547607421875 0.62841796875 1.5380859375 0.6064453125 Q 1.528564453125 0.58447265625 1.51171875 0.567626953125 Q 1.494873046875 0.55078125 1.4688720703125 0.5408935546875 Q 1.44287109375 0.531005859375 1.404052734375 0.531005859375 M 2.39501953125 0.64306640625 Q 2.363525390625 0.603515625 2.32470703125 0.5833740234375 Q 2.285888671875 0.563232421875 2.233154296875 0.566162109375 Q 2.190673828125 0.563232421875 2.1558837890625 0.577880859375 Q 2.12109375 0.592529296875 2.0958251953125 0.618896484375 Q 2.070556640625 0.645263671875 2.056640625 0.6815185546875 Q 2.042724609375 0.7177734375 2.042724609375 0.76318359375 Q 2.042724609375 0.803466796875 2.057373046875 0.83935546875 Q 2.072021484375 0.875244140625 2.0972900390625 0.9012451171875 Q 2.12255859375 0.92724609375 2.1573486328125 0.94189453125 Q 2.192138671875 0.95654296875 2.233154296875 0.95947265625 Q 2.267578125 0.95654296875 2.2957763671875 0.9451904296875 Q 2.323974609375 0.933837890625 2.345947265625 0.9158935546875 Q 2.367919921875 0.89794921875 2.3836669921875 0.8756103515625 Q 2.3994140625 0.853271484375 2.408203125 0.83349609375 L 2.609619140625 0.88916015625 Q 2.59716796875 0.93310546875 2.5667724609375 0.980712890625 Q 2.536376953125 1.0283203125 2.4876708984375 1.0675048828125 Q 2.43896484375 1.106689453125 2.3719482421875 1.13232421875 Q 2.304931640625 1.157958984375 2.21923828125 1.157958984375 Q 2.132080078125 1.157958984375 2.058837890625 1.1260986328125 Q 1.985595703125 1.09423828125 1.932861328125 1.039306640625 Q 1.880126953125 0.984375 1.8504638671875 0.910400390625 Q 1.82080078125 0.83642578125 1.82080078125 0.75146484375 Q 1.82080078125 0.667236328125 1.8511962890625 0.5950927734375 Q 1.881591796875 0.52294921875 1.93505859375 0.4691162109375 Q 1.988525390625 0.415283203125 2.0621337890625 0.38525390625 Q 2.1357421875 0.355224609375 2.22216796875 0.358154296875 Q 2.28369140625 0.355224609375 2.341552734375 0.3720703125 Q 2.3994140625 0.388916015625 2.451416015625 0.422607421875 L 2.59716796875 0.422607421875 L 2.59716796875 0.64306640625 L 2.39501953125 0.64306640625 M 2.67333984375 0 L 3.015380859375 0 L 3.015380859375 0.451171875 Q 3.05859375 0.41162109375 3.1102294921875 0.3892822265625 Q 3.161865234375 0.366943359375 3.22412109375 0.366943359375 Q 3.361083984375 0.366943359375 3.43359375 0.4434814453125 Q 3.506103515625 0.52001953125 3.506103515625 0.667236328125 L 3.506103515625 0.93896484375 L 3.617431640625 0.93896484375 L 3.617431640625 1.1396484375 L 3.2783203125 1.1396484375 L 3.2783203125 0.718505859375 Q 3.2783203125 0.65478515625 3.246826171875 0.6181640625 Q 3.21533203125 0.58154296875 3.16552734375 0.58154296875 Q 3.132568359375 0.58154296875 3.09375 0.599853515625 Q 3.054931640625 0.6181640625 3.015380859375 0.6533203125 L 3.015380859375 0.93896484375 L 3.126708984375 0.93896484375 L 3.126708984375 1.1396484375 L 2.67333984375 1.1396484375 L 2.67333984375 0.93896484375 L 2.79052734375 0.93896484375 L 2.79052734375 0.20068359375 L 2.67333984375 0.20068359375 L 2.67333984375 0 M 3.728759765625 0.029296875 L 4.587890625 0.029296875 L 4.587890625 0.407958984375 L 4.349853515625 0.407958984375 L 4.349853515625 0.251953125 L 4.0869140625 0.251953125 L 4.0869140625 0.485595703125 L 4.314697265625 0.485595703125 L 4.314697265625 0.69873046875 L 4.0869140625 0.69873046875 L 4.0869140625 0.93896484375 L 4.2041015625 0.93896484375 L 4.2041015625 1.1396484375 L 3.728759765625 1.1396484375 L 3.728759765625 0.93896484375 L 3.84375 0.93896484375 L 3.84375 0.251953125 L 3.728759765625 0.251953125 L 3.728759765625 0.029296875 M 4.639892578125 0.75732421875 Q 4.639892578125 0.674560546875 4.669921875 0.60205078125 Q 4.699951171875 0.529541015625 4.75341796875 0.475341796875 Q 4.806884765625 0.421142578125 4.880859375 0.3896484375 Q 4.954833984375 0.358154296875 5.04345703125 0.358154296875 Q 5.132080078125 0.358154296875 5.2064208984375 0.3896484375 Q 5.28076171875 0.421142578125 5.334228515625 0.475341796875 Q 5.3876953125 0.529541015625 5.4173583984375 0.60205078125 Q 5.447021484375 0.674560546875 5.447021484375 0.75732421875 Q 5.447021484375 0.840087890625 5.4180908203125 0.9129638671875 Q 5.38916015625 0.98583984375 5.3360595703125 1.0404052734375 Q 5.282958984375 1.094970703125 5.2086181640625 1.12646484375 Q 5.13427734375 1.157958984375 5.04345703125 1.157958984375 Q 4.951904296875 1.157958984375 4.8775634765625 1.12646484375 Q 4.80322265625 1.094970703125 4.75048828125 1.040771484375 Q 4.69775390625 0.986572265625 4.6688232421875 0.9136962890625 Q 4.639892578125 0.8408203125 4.639892578125 0.75732421875 M 4.85888671875 0.75732421875 Q 4.85888671875 0.800537109375 4.87353515625 0.8367919921875 Q 4.88818359375 0.873046875 4.9134521484375 0.8994140625 Q 4.938720703125 0.92578125 4.9720458984375 0.9404296875 Q 5.00537109375 0.955078125 5.04345703125 0.955078125 Q 5.082275390625 0.955078125 5.1156005859375 0.9407958984375 Q 5.14892578125 0.926513671875 5.1734619140625 0.900146484375 Q 5.197998046875 0.873779296875 5.2119140625 0.8375244140625 Q 5.225830078125 0.80126953125 5.225830078125 0.75732421875 Q 5.225830078125 0.7119140625 5.2119140625 0.67529296875 Q 5.197998046875 0.638671875 5.1734619140625 0.613037109375 Q 5.14892578125 0.58740234375 5.1156005859375 0.5738525390625 Q 5.082275390625 0.560302734375 5.04345703125 0.56103515625 Q 5.00537109375 0.560302734375 4.9720458984375 0.5738525390625 Q 4.938720703125 0.58740234375 4.9134521484375 0.613037109375 Q 4.88818359375 0.638671875 4.87353515625 0.67529296875 Q 4.85888671875 0.7119140625 4.85888671875 0.75732421875 M 6.245361328125 0.656982421875 L 6.03955078125 0.656982421875 L 6.03955078125 0.57861328125 Q 6.009521484375 0.57861328125 5.984619140625 0.5826416015625 Q 5.959716796875 0.586669921875 5.9410400390625 0.59619140625 Q 5.92236328125 0.605712890625 5.9095458984375 0.62255859375 Q 5.896728515625 0.639404296875 5.8916015625 0.664306640625 L 5.8916015625 0.93896484375 L 6.046142578125 0.93896484375 L 6.046142578125 1.1396484375 L 5.551025390625 1.1396484375 L 5.551025390625 0.93896484375 L 5.66455078125 0.93896484375 L 5.66455078125 0.58154296875 L 5.552490234375 0.58154296875 L 5.552490234375 0.380859375 L 5.89013671875 0.380859375 L 5.89013671875 0.434326171875 Q 5.92236328125 0.40869140625 5.962646484375 0.394775390625 Q 6.0029296875 0.380859375 6.050537109375 0.380859375 Q 6.098876953125 0.380859375 6.150146484375 0.381591796875 Q 6.201416015625 0.38232421875 6.245361328125 0.38232421875 L 6.245361328125 0.656982421875 M 6.393310546875 0.029296875 L 7.276611328125 0.029296875 L 7.276611328125 0.407958984375 L 7.037841796875 0.407958984375 L 7.037841796875 0.25048828125 L 6.7529296875 0.25048828125 L 6.7529296875 0.469482421875 L 6.973388671875 0.469482421875 L 6.973388671875 0.681884765625 L 6.7529296875 0.681884765625 L 6.7529296875 0.93896484375 L 7.037841796875 0.93896484375 L 7.037841796875 0.741943359375 L 7.276611328125 0.741943359375 L 7.276611328125 1.1396484375 L 6.393310546875 1.1396484375 L 6.393310546875 0.93896484375 L 6.509765625 0.93896484375 L 6.509765625 0.25048828125 L 6.393310546875 0.25048828125 L 6.393310546875 0.029296875 M 7.3505859375 0.380859375 L 7.746826171875 0.380859375 L 7.746826171875 0.58154296875 L 7.654541015625 0.58154296875 L 7.7783203125 0.907470703125 L 7.897705078125 0.58154296875 L 7.815673828125 0.58154296875 L 7.815673828125 0.380859375 L 8.2119140625 0.380859375 L 8.2119140625 0.58154296875 L 8.11083984375 0.58154296875 L 7.884521484375 1.142578125 L 7.6611328125 1.142578125 L 7.434814453125 0.58154296875 L 7.3505859375 0.58154296875 L 7.3505859375 0.380859375 M 8.49609375 0.807861328125 L 8.498291015625 0.83056640625 Q 8.50634765625 0.863525390625 8.5257568359375 0.888427734375 Q 8.545166015625 0.913330078125 8.571533203125 0.93017578125 Q 8.597900390625 0.947021484375 8.630126953125 0.9554443359375 Q 8.662353515625 0.9638671875 8.6953125 0.9638671875 Q 8.728271484375 0.9638671875 8.7579345703125 0.9598388671875 Q 8.78759765625 0.955810546875 8.8154296875 0.9488525390625 Q 8.84326171875 0.94189453125 8.86962890625 0.9327392578125 Q 8.89599609375 0.923583984375 8.923095703125 0.913330078125 L 9.003662109375 1.0634765625 Q 8.9619140625 1.089111328125 8.9271240234375 1.1070556640625 Q 8.892333984375 1.125 8.857177734375 1.13671875 Q 8.822021484375 1.1484375 8.782470703125 1.1539306640625 Q 8.742919921875 1.159423828125 8.690185546875 1.159423828125 Q 8.59130859375 1.159423828125 8.514404296875 1.1268310546875 Q 8.4375 1.09423828125 8.3851318359375 1.03857421875 Q 8.332763671875 0.98291015625 8.3052978515625 0.908203125 Q 8.27783203125 0.83349609375 8.27783203125 0.75 Q 8.27783203125 0.66650390625 8.3067626953125 0.59326171875 Q 8.335693359375 0.52001953125 8.388427734375 0.4654541015625 Q 8.441162109375 0.410888671875 8.514404296875 0.37939453125 Q 8.587646484375 0.347900390625 8.677001953125 0.347900390625 Q 8.766357421875 0.347900390625 8.8355712890625 0.3775634765625 Q 8.90478515625 0.4072265625 8.952392578125 0.4595947265625 Q 9 0.511962890625 9.025634765625 0.5826416015625 Q 9.05126953125 0.6533203125 9.053466796875 0.734619140625 Q 9.0556640625 0.7529296875 9.0560302734375 0.7708740234375 Q 9.056396484375 0.788818359375 9.054931640625 0.807861328125 L 8.49609375 0.807861328125 M 8.671142578125 0.531005859375 Q 8.630126953125 0.531005859375 8.6011962890625 0.5408935546875 Q 8.572265625 0.55078125 8.552490234375 0.5679931640625 Q 8.53271484375 0.585205078125 8.52099609375 0.607177734375 Q 8.50927734375 0.629150390625 8.502685546875 0.6533203125 L 8.81982421875 0.6533203125 Q 8.814697265625 0.62841796875 8.80517578125 0.6064453125 Q 8.795654296875 0.58447265625 8.77880859375 0.567626953125 Q 8.761962890625 0.55078125 8.7359619140625 0.5408935546875 Q 8.7099609375 0.531005859375 8.671142578125 0.531005859375 M 9.85546875 0.656982421875 L 9.649658203125 0.656982421875 L 9.649658203125 0.57861328125 Q 9.61962890625 0.57861328125 9.5947265625 0.5826416015625 Q 9.56982421875 0.586669921875 9.5511474609375 0.59619140625 Q 9.532470703125 0.605712890625 9.5196533203125 0.62255859375 Q 9.5068359375 0.639404296875 9.501708984375 0.664306640625 L 9.501708984375 0.93896484375 L 9.65625 0.93896484375 L 9.65625 1.1396484375 L 9.1611328125 1.1396484375 L 9.1611328125 0.93896484375 L 9.274658203125 0.93896484375 L 9.274658203125 0.58154296875 L 9.16259765625 0.58154296875 L 9.16259765625 0.380859375 L 9.500244140625 0.380859375 L 9.500244140625 0.434326171875 Q 9.532470703125 0.40869140625 9.57275390625 0.394775390625 Q 9.613037109375 0.380859375 9.66064453125 0.380859375 Q 9.708984375 0.380859375 9.76025390625 0.381591796875 Q 9.8115234375 0.38232421875 9.85546875 0.38232421875 L 9.85546875 0.656982421875 M 9.9580078125 0.380859375 L 10.330078125 0.380859375 L 10.330078125 0.58154296875 L 10.271484375 0.58154296875 L 10.380615234375 0.86572265625 L 10.49267578125 0.58154296875 L 10.427490234375 0.58154296875 L 10.427490234375 0.380859375 L 10.799560546875 0.380859375 L 10.799560546875 0.58154296875 L 10.716796875 0.58154296875 L 10.423095703125 1.283935546875 L 10.553466796875 1.283935546875 L 10.553466796875 1.484619140625 L 10.08251953125 1.484619140625 L 10.08251953125 1.283935546875 L 10.215087890625 1.283935546875 L 10.272216796875 1.1396484375 L 10.034912109375 0.58154296875 L 9.9580078125 0.58154296875 L 9.9580078125 0.380859375 M 10.85009765625 0 L 11.18115234375 0 L 11.18115234375 0.397705078125 Q 11.220703125 0.378662109375 11.262451171875 0.368408203125 Q 11.30419921875 0.358154296875 11.34814453125 0.358154296875 Q 11.432373046875 0.358154296875 11.504150390625 0.3896484375 Q 11.575927734375 0.421142578125 11.6279296875 0.475341796875 Q 11.679931640625 0.529541015625 11.7095947265625 0.60205078125 Q 11.7392578125 0.674560546875 11.7392578125 0.755859375 Q 11.7392578125 0.837890625 11.7103271484375 0.910400390625 Q 11.681396484375 0.98291015625 11.62939453125 1.0367431640625 Q 11.577392578125 1.090576171875 11.505615234375 1.1217041015625 Q 11.433837890625 1.15283203125 11.34814453125 1.15283203125 Q 11.302001953125 1.15283203125 11.26025390625 1.14404296875 Q 11.218505859375 1.13525390625 11.18115234375 1.119140625 L 11.18115234375 1.1396484375 L 10.956298828125 1.1396484375 L 10.956298828125 0.20068359375 L 10.85009765625 0.20068359375 L 10.85009765625 0 M 11.332763671875 0.560302734375 Q 11.284423828125 0.560302734375 11.2459716796875 0.582275390625 Q 11.20751953125 0.604248046875 11.18115234375 0.645263671875 L 11.18115234375 0.872314453125 Q 11.20458984375 0.907470703125 11.2437744140625 0.9290771484375 Q 11.282958984375 0.95068359375 11.331298828125 0.95068359375 Q 11.36865234375 0.95068359375 11.40234375 0.9371337890625 Q 11.43603515625 0.923583984375 11.4613037109375 0.8983154296875 Q 11.486572265625 0.873046875 11.501220703125 0.8375244140625 Q 11.515869140625 0.802001953125 11.515869140625 0.75732421875 Q 11.515869140625 0.7119140625 11.501220703125 0.67529296875 Q 11.486572265625 0.638671875 11.461669921875 0.613037109375 Q 11.436767578125 0.58740234375 11.4034423828125 0.5738525390625 Q 11.3701171875 0.560302734375 11.332763671875 0.560302734375 M 11.836669921875 0.75732421875 Q 11.836669921875 0.674560546875 11.86669921875 0.60205078125 Q 11.896728515625 0.529541015625 11.9501953125 0.475341796875 Q 12.003662109375 0.421142578125 12.07763671875 0.3896484375 Q 12.151611328125 0.358154296875 12.240234375 0.358154296875 Q 12.328857421875 0.358154296875 12.4031982421875 0.3896484375 Q 12.4775390625 0.421142578125 12.531005859375 0.475341796875 Q 12.58447265625 0.529541015625 12.6141357421875 0.60205078125 Q 12.643798828125 0.674560546875 12.643798828125 0.75732421875 Q 12.643798828125 0.840087890625 12.6148681640625 0.9129638671875 Q 12.5859375 0.98583984375 12.5328369140625 1.0404052734375 Q 12.479736328125 1.094970703125 12.4053955078125 1.12646484375 Q 12.3310546875 1.157958984375 12.240234375 1.157958984375 Q 12.148681640625 1.157958984375 12.0743408203125 1.12646484375 Q 12 1.094970703125 11.947265625 1.040771484375 Q 11.89453125 0.986572265625 11.8656005859375 0.9136962890625 Q 11.836669921875 0.8408203125 11.836669921875 0.75732421875 M 12.0556640625 0.75732421875 Q 12.0556640625 0.800537109375 12.0703125 0.8367919921875 Q 12.0849609375 0.873046875 12.1102294921875 0.8994140625 Q 12.135498046875 0.92578125 12.1688232421875 0.9404296875 Q 12.2021484375 0.955078125 12.240234375 0.955078125 Q 12.279052734375 0.955078125 12.3123779296875 0.9407958984375 Q 12.345703125 0.926513671875 12.3702392578125 0.900146484375 Q 12.394775390625 0.873779296875 12.40869140625 0.8375244140625 Q 12.422607421875 0.80126953125 12.422607421875 0.75732421875 Q 12.422607421875 0.7119140625 12.40869140625 0.67529296875 Q 12.394775390625 0.638671875 12.3702392578125 0.613037109375 Q 12.345703125 0.58740234375 12.3123779296875 0.5738525390625 Q 12.279052734375 0.560302734375 12.240234375 0.56103515625 Q 12.2021484375 0.560302734375 12.1688232421875 0.5738525390625 Q 12.135498046875 0.58740234375 12.1102294921875 0.613037109375 Q 12.0849609375 0.638671875 12.0703125 0.67529296875 Q 12.0556640625 0.7119140625 12.0556640625 0.75732421875 M 13.20263671875 0 L 13.534423828125 0 L 13.534423828125 0.93896484375 L 13.682373046875 0.93896484375 L 13.682373046875 1.1396484375 L 13.308837890625 1.1396484375 L 13.308837890625 1.1103515625 Q 13.269287109375 1.130859375 13.2279052734375 1.142578125 Q 13.1865234375 1.154296875 13.14404296875 1.154296875 Q 13.056884765625 1.154296875 12.9840087890625 1.1231689453125 Q 12.9111328125 1.092041015625 12.8587646484375 1.037841796875 Q 12.806396484375 0.983642578125 12.777099609375 0.9107666015625 Q 12.747802734375 0.837890625 12.747802734375 0.75439453125 Q 12.747802734375 0.6708984375 12.7767333984375 0.5987548828125 Q 12.8056640625 0.526611328125 12.8572998046875 0.47314453125 Q 12.908935546875 0.419677734375 12.9810791015625 0.388916015625 Q 13.05322265625 0.358154296875 13.1396484375 0.358154296875 Q 13.187255859375 0.358154296875 13.22900390625 0.3673095703125 Q 13.270751953125 0.37646484375 13.308837890625 0.393310546875 L 13.308837890625 0.20068359375 L 13.20263671875 0.20068359375 L 13.20263671875 0 M 13.156494140625 0.9521484375 Q 13.204833984375 0.95068359375 13.2440185546875 0.92724609375 Q 13.283203125 0.90380859375 13.308837890625 0.86572265625 L 13.308837890625 0.642333984375 Q 13.283203125 0.603515625 13.2425537109375 0.5819091796875 Q 13.201904296875 0.560302734375 13.156494140625 0.56103515625 Q 13.118408203125 0.560302734375 13.0850830078125 0.57421875 Q 13.0517578125 0.588134765625 13.0264892578125 0.61376953125 Q 13.001220703125 0.639404296875 12.986572265625 0.67529296875 Q 12.971923828125 0.711181640625 12.971923828125 0.756591796875 Q 12.971923828125 0.80126953125 12.986572265625 0.8375244140625 Q 13.001220703125 0.873779296875 13.0264892578125 0.8990478515625 Q 13.0517578125 0.92431640625 13.0850830078125 0.9375 Q 13.118408203125 0.95068359375 13.156494140625 0.9521484375 M 13.757080078125 0.380859375 L 14.129150390625 0.380859375 L 14.129150390625 0.58154296875 L 14.070556640625 0.58154296875 L 14.1796875 0.86572265625 L 14.291748046875 0.58154296875 L 14.2265625 0.58154296875 L 14.2265625 0.380859375 L 14.5986328125 0.380859375 L 14.5986328125 0.58154296875 L 14.515869140625 0.58154296875 L 14.22216796875 1.283935546875 L 14.3525390625 1.283935546875 L 14.3525390625 1.484619140625 L 13.881591796875 1.484619140625 L 13.881591796875 1.283935546875 L 14.01416015625 1.283935546875 L 14.0712890625 1.1396484375 L 13.833984375 0.58154296875 L 13.757080078125 0.58154296875 L 13.757080078125 0.380859375" fill="#004a80" fill-rule="nonzero"></path></g><g><path d=" M 3.854400634765625 2.2629736328125 L 3.896820068359375 2.2629736328125 L 3.896820068359375 1.9028662109374999 L 3.791229248046875 1.9028662109374999 L 3.791229248046875 1.9748876953124999 L 3.728668212890625 1.9748876953124999 L 3.728668212890625 1.8528173828124999 L 4.141265869140625 1.8528173828124999 L 4.141265869140625 1.9748876953124999 L 4.078704833984375 1.9748876953124999 L 4.078704833984375 1.9028662109374999 L 3.956634521484375 1.9028662109374999 L 3.956634521484375 2.2629736328125 L 4.004241943359375 2.2629736328125 L 4.004241943359375 2.3154638671875 L 3.854400634765625 2.3154638671875 L 3.854400634765625 2.2629736328125 M 4.20123291015625 2.16470703125 Q 4.20123291015625 2.178134765625 4.203216552734375 2.189273681640625 Q 4.2052001953125 2.20041259765625 4.2088623046875 2.2104833984375 Q 4.22015380859375 2.2410009765625 4.245025634765625 2.256412353515625 Q 4.2698974609375 2.27182373046875 4.30133056640625 2.27182373046875 Q 4.3260498046875 2.27182373046875 4.349395751953125 2.264957275390625 Q 4.37274169921875 2.2580908203125 4.39837646484375 2.2434423828125 L 4.4212646484375 2.28219970703125 Q 4.39013671875 2.30356201171875 4.35870361328125 2.31393798828125 Q 4.3272705078125 2.32431396484375 4.29339599609375 2.32431396484375 Q 4.2613525390625 2.32431396484375 4.234039306640625 2.3136328125 Q 4.20672607421875 2.30295166015625 4.187042236328125 2.28189453125 Q 4.1673583984375 2.26083740234375 4.156219482421875 2.229404296875 Q 4.14508056640625 2.19797119140625 4.14508056640625 2.156162109375 Q 4.14508056640625 2.12228759765625 4.154541015625 2.092227783203125 Q 4.16400146484375 2.06216796875 4.182769775390625 2.039737548828125 Q 4.2015380859375 2.01730712890625 4.22930908203125 2.0041845703125 Q 4.257080078125 1.9910620117187499 4.29400634765625 1.9910620117187499 Q 4.3297119140625 1.9910620117187499 4.353668212890625 2.001895751953125 Q 4.37762451171875 2.0127294921875 4.392730712890625 2.030582275390625 Q 4.4078369140625 2.04843505859375 4.415618896484375 2.0713232421875 Q 4.42340087890625 2.09421142578125 4.42645263671875 2.11801513671875 Q 4.427978515625 2.12961181640625 4.428436279296875 2.141513671875 Q 4.42889404296875 2.15341552734375 4.42889404296875 2.16470703125 L 4.20123291015625 2.16470703125 M 4.2900390625 2.03866943359375 Q 4.27020263671875 2.03866943359375 4.255401611328125 2.044315185546875 Q 4.2406005859375 2.0499609375 4.230224609375 2.060489501953125 Q 4.2198486328125 2.07101806640625 4.213592529296875 2.08627685546875 Q 4.20733642578125 2.10153564453125 4.20428466796875 2.12045654296875 L 4.3681640625 2.12045654296875 Q 4.366943359375 2.10275634765625 4.362518310546875 2.087802734375 Q 4.35809326171875 2.07284912109375 4.34893798828125 2.06186279296875 Q 4.33978271484375 2.05087646484375 4.325439453125 2.04477294921875 Q 4.31109619140625 2.03866943359375 4.2900390625 2.03866943359375 M 4.697601318359375 2.0835302734375 Q 4.684783935546875 2.06064208984375 4.66510009765625 2.0499609375 Q 4.645416259765625 2.03927978515625 4.619476318359375 2.03927978515625 Q 4.599639892578125 2.03927978515625 4.582244873046875 2.04751953125 Q 4.564849853515625 2.05575927734375 4.5518798828125 2.07101806640625 Q 4.538909912109375 2.08627685546875 4.53143310546875 2.108096923828125 Q 4.523956298828125 2.1299169921875 4.523956298828125 2.1567724609375 Q 4.523956298828125 2.18332275390625 4.53143310546875 2.20468505859375 Q 4.538909912109375 2.22604736328125 4.552032470703125 2.241153564453125 Q 4.565155029296875 2.256259765625 4.5823974609375 2.264346923828125 Q 4.599639892578125 2.27243408203125 4.619476318359375 2.27243408203125 Q 4.648773193359375 2.27243408203125 4.670440673828125 2.258243408203125 Q 4.692108154296875 2.244052734375 4.704925537109375 2.2165869140625 L 4.751922607421875 2.2397802734375 Q 4.742767333984375 2.2593115234375 4.729339599609375 2.27487548828125 Q 4.715911865234375 2.290439453125 4.698974609375 2.30142578125 Q 4.682037353515625 2.312412109375 4.6617431640625 2.318363037109375 Q 4.641448974609375 2.32431396484375 4.618865966796875 2.32431396484375 Q 4.585906982421875 2.32431396484375 4.5579833984375 2.311954345703125 Q 4.530059814453125 2.2995947265625 4.509765625 2.27731689453125 Q 4.489471435546875 2.2550390625 4.478179931640625 2.22421630859375 Q 4.466888427734375 2.1933935546875 4.466888427734375 2.1567724609375 Q 4.466888427734375 2.1201513671875 4.478790283203125 2.08932861328125 Q 4.490692138671875 2.058505859375 4.511444091796875 2.036380615234375 Q 4.532196044921875 2.01425537109375 4.559967041015625 2.0017431640625 Q 4.587738037109375 1.9892309570312499 4.619476318359375 1.9892309570312499 Q 4.649383544921875 1.9892309570312499 4.67608642578125 1.9996069335937499 Q 4.702789306640625 2.00998291015625 4.722930908203125 2.0310400390625 L 4.754974365234375 2.0310400390625 L 4.754974365234375 2.0835302734375 L 4.697601318359375 2.0835302734375 M 4.8155517578125 1.8406103515624999 L 4.9156494140625 1.8406103515624999 L 4.9156494140625 2.034091796875 L 4.91748046875 2.034091796875 Q 4.926025390625 2.025546875 4.937164306640625 2.018070068359375 Q 4.94830322265625 2.01059326171875 4.96051025390625 2.00510009765625 Q 4.97271728515625 1.9996069335937499 4.98583984375 1.9965551757812499 Q 4.99896240234375 1.9935034179687499 5.0133056640625 1.9935034179687499 Q 5.03863525390625 1.9935034179687499 5.05908203125 2.0005224609375 Q 5.07952880859375 2.00754150390625 5.0938720703125 2.021884765625 Q 5.10821533203125 2.03622802734375 5.115997314453125 2.058658447265625 Q 5.123779296875 2.0810888671875 5.123779296875 2.1116064453125 L 5.123779296875 2.2629736328125 L 5.17138671875 2.2629736328125 L 5.17138671875 2.3154638671875 L 5.021240234375 2.3154638671875 L 5.021240234375 2.2629736328125 L 5.0645751953125 2.2629736328125 L 5.0645751953125 2.11862548828125 Q 5.0645751953125 2.0823095703125 5.046112060546875 2.063541259765625 Q 5.02764892578125 2.04477294921875 4.9931640625 2.04477294921875 Q 4.9736328125 2.04477294921875 4.9534912109375 2.054080810546875 Q 4.933349609375 2.063388671875 4.9156494140625 2.0774267578125 L 4.9156494140625 2.2629736328125 L 4.96142578125 2.2629736328125 L 4.96142578125 2.3154638671875 L 4.811279296875 2.3154638671875 L 4.811279296875 2.2629736328125 L 4.85888671875 2.2629736328125 L 4.85888671875 1.8931005859374999 L 4.8155517578125 1.8931005859374999 L 4.8155517578125 1.8406103515624999 M 5.470458984375 2.2629736328125 L 5.51287841796875 2.2629736328125 L 5.51287841796875 1.9028662109374999 L 5.40728759765625 1.9028662109374999 L 5.40728759765625 1.9748876953124999 L 5.3447265625 1.9748876953124999 L 5.3447265625 1.8528173828124999 L 5.75732421875 1.8528173828124999 L 5.75732421875 1.9748876953124999 L 5.69476318359375 1.9748876953124999 L 5.69476318359375 1.9028662109374999 L 5.57269287109375 1.9028662109374999 L 5.57269287109375 2.2629736328125 L 5.62030029296875 2.2629736328125 L 5.62030029296875 2.3154638671875 L 5.470458984375 2.3154638671875 L 5.470458984375 2.2629736328125 M 5.805389404296875 1.8406103515624999 L 5.905487060546875 1.8406103515624999 L 5.905487060546875 2.034091796875 L 5.907318115234375 2.034091796875 Q 5.915863037109375 2.025546875 5.927001953125 2.018070068359375 Q 5.938140869140625 2.01059326171875 5.950347900390625 2.00510009765625 Q 5.962554931640625 1.9996069335937499 5.975677490234375 1.9965551757812499 Q 5.988800048828125 1.9935034179687499 6.003143310546875 1.9935034179687499 Q 6.028472900390625 1.9935034179687499 6.048919677734375 2.0005224609375 Q 6.069366455078125 2.00754150390625 6.083709716796875 2.021884765625 Q 6.098052978515625 2.03622802734375 6.1058349609375 2.058658447265625 Q 6.113616943359375 2.0810888671875 6.113616943359375 2.1116064453125 L 6.113616943359375 2.2629736328125 L 6.161224365234375 2.2629736328125 L 6.161224365234375 2.3154638671875 L 6.011077880859375 2.3154638671875 L 6.011077880859375 2.2629736328125 L 6.054412841796875 2.2629736328125 L 6.054412841796875 2.11862548828125 Q 6.054412841796875 2.0823095703125 6.03594970703125 2.063541259765625 Q 6.017486572265625 2.04477294921875 5.983001708984375 2.04477294921875 Q 5.963470458984375 2.04477294921875 5.943328857421875 2.054080810546875 Q 5.923187255859375 2.063388671875 5.905487060546875 2.0774267578125 L 5.905487060546875 2.2629736328125 L 5.951263427734375 2.2629736328125 L 5.951263427734375 2.3154638671875 L 5.801116943359375 2.3154638671875 L 5.801116943359375 2.2629736328125 L 5.848724365234375 2.2629736328125 L 5.848724365234375 1.8931005859374999 L 5.805389404296875 1.8931005859374999 L 5.805389404296875 1.8406103515624999 M 6.40093994140625 2.2861669921875 Q 6.3829345703125 2.30295166015625 6.361114501953125 2.3136328125 Q 6.33929443359375 2.32431396484375 6.3115234375 2.32431396484375 Q 6.288330078125 2.32431396484375 6.268951416015625 2.31698974609375 Q 6.24957275390625 2.30966552734375 6.23553466796875 2.297000732421875 Q 6.22149658203125 2.2843359375 6.213714599609375 2.26755126953125 Q 6.2059326171875 2.2507666015625 6.2059326171875 2.231845703125 Q 6.2059326171875 2.2117041015625 6.211883544921875 2.19614013671875 Q 6.21783447265625 2.180576171875 6.227752685546875 2.169132080078125 Q 6.2376708984375 2.15768798828125 6.250946044921875 2.149906005859375 Q 6.26422119140625 2.1421240234375 6.278717041015625 2.137393798828125 Q 6.293212890625 2.13266357421875 6.308319091796875 2.130679931640625 Q 6.32342529296875 2.1286962890625 6.337158203125 2.1286962890625 Q 6.359130859375 2.1286962890625 6.37408447265625 2.130069580078125 Q 6.3890380859375 2.13144287109375 6.4012451171875 2.13388427734375 L 6.40155029296875 2.1079443359375 Q 6.40155029296875 2.09115966796875 6.39666748046875 2.078800048828125 Q 6.39178466796875 2.0664404296875 6.3829345703125 2.058353271484375 Q 6.37408447265625 2.05026611328125 6.361724853515625 2.046298828125 Q 6.349365234375 2.04233154296875 6.3341064453125 2.04233154296875 Q 6.31976318359375 2.04233154296875 6.306640625 2.044315185546875 Q 6.29351806640625 2.046298828125 6.282073974609375 2.049503173828125 Q 6.2706298828125 2.05270751953125 6.261016845703125 2.056827392578125 Q 6.25140380859375 2.060947265625 6.24468994140625 2.06552490234375 L 6.22607421875 2.0261572265625 Q 6.23736572265625 2.0188330078125 6.25079345703125 2.012576904296875 Q 6.26422119140625 2.00632080078125 6.279022216796875 2.001895751953125 Q 6.2938232421875 1.9974707031249999 6.309234619140625 1.9948767089843749 Q 6.32464599609375 1.9922827148437499 6.339599609375 1.9922827148437499 Q 6.3670654296875 1.9922827148437499 6.3890380859375 1.9988439941406249 Q 6.4110107421875 2.0054052734375 6.42626953125 2.01913818359375 Q 6.4415283203125 2.03287109375 6.44976806640625 2.054080810546875 Q 6.4580078125 2.07529052734375 6.4580078125 2.104892578125 L 6.45770263671875 2.2629736328125 L 6.4927978515625 2.2629736328125 L 6.4927978515625 2.3154638671875 L 6.40093994140625 2.3154638671875 L 6.40093994140625 2.2861669921875 M 6.32403564453125 2.27670654296875 Q 6.3353271484375 2.27670654296875 6.34661865234375 2.2739599609375 Q 6.35791015625 2.27121337890625 6.36798095703125 2.266483154296875 Q 6.3780517578125 2.2617529296875 6.3865966796875 2.255496826171875 Q 6.3951416015625 2.24924072265625 6.40093994140625 2.24252685546875 L 6.4012451171875 2.17111572265625 L 6.3353271484375 2.17111572265625 Q 6.31884765625 2.17111572265625 6.305267333984375 2.17477783203125 Q 6.29168701171875 2.17843994140625 6.281768798828125 2.185458984375 Q 6.2718505859375 2.19247802734375 6.266357421875 2.20285400390625 Q 6.2608642578125 2.21322998046875 6.2608642578125 2.22665771484375 Q 6.2608642578125 2.239169921875 6.26544189453125 2.248477783203125 Q 6.27001953125 2.25778564453125 6.278411865234375 2.264041748046875 Q 6.28680419921875 2.2702978515625 6.29840087890625 2.273502197265625 Q 6.30999755859375 2.27670654296875 6.32403564453125 2.27670654296875 M 6.649200439453125 1.9993017578124999 L 6.723358154296875 1.9993017578124999 L 6.723358154296875 2.04538330078125 L 6.648590087890625 2.04538330078125 L 6.647674560546875 2.22787841796875 Q 6.647674560546875 2.246494140625 6.651947021484375 2.2580908203125 Q 6.656219482421875 2.2696875 6.665679931640625 2.274112548828125 Q 6.675140380859375 2.27853759765625 6.687042236328125 2.27853759765625 Q 6.699859619140625 2.27853759765625 6.709625244140625 2.276248779296875 Q 6.719390869140625 2.2739599609375 6.730987548828125 2.268466796875 L 6.744110107421875 2.30661376953125 Q 6.729461669921875 2.3142431640625 6.713287353515625 2.318668212890625 Q 6.697113037109375 2.32309326171875 6.675140380859375 2.32309326171875 Q 6.654388427734375 2.32309326171875 6.63897705078125 2.318057861328125 Q 6.623565673828125 2.3130224609375 6.613037109375 2.30112060546875 Q 6.602508544921875 2.28921875 6.597320556640625 2.269229736328125 Q 6.592132568359375 2.24924072265625 6.592132568359375 2.21933349609375 L 6.593048095703125 2.04538330078125 L 6.542694091796875 2.04538330078125 L 6.542694091796875 1.9993017578124999 L 6.593658447265625 1.9993017578124999 L 6.593658447265625 1.9236181640624999 L 6.649200439453125 1.8973730468749999 L 6.649200439453125 1.9993017578124999 M 6.941558837890625 2.2629736328125 L 6.985504150390625 2.2629736328125 L 6.985504150390625 1.9111059570312499 L 6.941558837890625 1.9111059570312499 L 6.941558837890625 1.8528173828124999 L 7.088043212890625 1.8528173828124999 L 7.234832763671875 2.25229248046875 L 7.383453369140625 1.8528173828124999 L 7.522308349609375 1.8528173828124999 L 7.522308349609375 1.9111059570312499 L 7.478668212890625 1.9111059570312499 L 7.478668212890625 2.2629736328125 L 7.522308349609375 2.2629736328125 L 7.522308349609375 2.3154638671875 L 7.372161865234375 2.3154638671875 L 7.372161865234375 2.2629736328125 L 7.421600341796875 2.2629736328125 L 7.421600341796875 1.9077490234374999 L 7.259857177734375 2.3154638671875 L 7.207977294921875 2.3154638671875 L 7.044097900390625 1.9068334960937499 L 7.044097900390625 2.2629736328125 L 7.091705322265625 2.2629736328125 L 7.091705322265625 2.3154638671875 L 6.941558837890625 2.3154638671875 L 6.941558837890625 2.2629736328125 M 7.7830810546875 2.2861669921875 Q 7.76507568359375 2.30295166015625 7.743255615234375 2.3136328125 Q 7.721435546875 2.32431396484375 7.69366455078125 2.32431396484375 Q 7.67047119140625 2.32431396484375 7.651092529296875 2.31698974609375 Q 7.6317138671875 2.30966552734375 7.61767578125 2.297000732421875 Q 7.6036376953125 2.2843359375 7.595855712890625 2.26755126953125 Q 7.58807373046875 2.2507666015625 7.58807373046875 2.231845703125 Q 7.58807373046875 2.2117041015625 7.594024658203125 2.19614013671875 Q 7.5999755859375 2.180576171875 7.609893798828125 2.169132080078125 Q 7.61981201171875 2.15768798828125 7.633087158203125 2.149906005859375 Q 7.6463623046875 2.1421240234375 7.660858154296875 2.137393798828125 Q 7.67535400390625 2.13266357421875 7.690460205078125 2.130679931640625 Q 7.70556640625 2.1286962890625 7.71929931640625 2.1286962890625 Q 7.74127197265625 2.1286962890625 7.7562255859375 2.130069580078125 Q 7.77117919921875 2.13144287109375 7.78338623046875 2.13388427734375 L 7.78369140625 2.1079443359375 Q 7.78369140625 2.09115966796875 7.77880859375 2.078800048828125 Q 7.77392578125 2.0664404296875 7.76507568359375 2.058353271484375 Q 7.7562255859375 2.05026611328125 7.743865966796875 2.046298828125 Q 7.73150634765625 2.04233154296875 7.71624755859375 2.04233154296875 Q 7.701904296875 2.04233154296875 7.68878173828125 2.044315185546875 Q 7.6756591796875 2.046298828125 7.664215087890625 2.049503173828125 Q 7.65277099609375 2.05270751953125 7.643157958984375 2.056827392578125 Q 7.633544921875 2.060947265625 7.6268310546875 2.06552490234375 L 7.60821533203125 2.0261572265625 Q 7.6195068359375 2.0188330078125 7.6329345703125 2.012576904296875 Q 7.6463623046875 2.00632080078125 7.661163330078125 2.001895751953125 Q 7.67596435546875 1.9974707031249999 7.691375732421875 1.9948767089843749 Q 7.706787109375 1.9922827148437499 7.72174072265625 1.9922827148437499 Q 7.74920654296875 1.9922827148437499 7.77117919921875 1.9988439941406249 Q 7.79315185546875 2.0054052734375 7.80841064453125 2.01913818359375 Q 7.82366943359375 2.03287109375 7.8319091796875 2.054080810546875 Q 7.84014892578125 2.07529052734375 7.84014892578125 2.104892578125 L 7.83984375 2.2629736328125 L 7.87493896484375 2.2629736328125 L 7.87493896484375 2.3154638671875 L 7.7830810546875 2.3154638671875 L 7.7830810546875 2.2861669921875 M 7.7061767578125 2.27670654296875 Q 7.71746826171875 2.27670654296875 7.728759765625 2.2739599609375 Q 7.74005126953125 2.27121337890625 7.7501220703125 2.266483154296875 Q 7.76019287109375 2.2617529296875 7.76873779296875 2.255496826171875 Q 7.77728271484375 2.24924072265625 7.7830810546875 2.24252685546875 L 7.78338623046875 2.17111572265625 L 7.71746826171875 2.17111572265625 Q 7.70098876953125 2.17111572265625 7.687408447265625 2.17477783203125 Q 7.673828125 2.17843994140625 7.663909912109375 2.185458984375 Q 7.65399169921875 2.19247802734375 7.64849853515625 2.20285400390625 Q 7.64300537109375 2.21322998046875 7.64300537109375 2.22665771484375 Q 7.64300537109375 2.239169921875 7.6475830078125 2.248477783203125 Q 7.65216064453125 2.25778564453125 7.660552978515625 2.264041748046875 Q 7.6689453125 2.2702978515625 7.6805419921875 2.273502197265625 Q 7.692138671875 2.27670654296875 7.7061767578125 2.27670654296875 M 7.937347412109375 1.8406103515624999 L 8.048736572265625 1.8406103515624999 L 8.048736572265625 1.8931005859374999 L 8.048126220703125 1.8931005859374999 L 8.048126220703125 2.129306640625 L 8.103057861328125 2.129306640625 L 8.178131103515625 2.0517919921875 L 8.159210205078125 2.0517919921875 L 8.159210205078125 1.9993017578124999 L 8.279144287109375 1.9993017578124999 L 8.279144287109375 2.0517919921875 L 8.239166259765625 2.0517919921875 L 8.143035888671875 2.15097412109375 L 8.248016357421875 2.2629736328125 L 8.286163330078125 2.2629736328125 L 8.286163330078125 2.3154638671875 L 8.219329833984375 2.3154638671875 L 8.089935302734375 2.17416748046875 L 8.048126220703125 2.17416748046875 L 8.048126220703125 2.2629736328125 L 8.074371337890625 2.2629736328125 L 8.074371337890625 2.3154638671875 L 7.939178466796875 2.3154638671875 L 7.939178466796875 2.2629736328125 L 7.991058349609375 2.2629736328125 L 7.991058349609375 1.8931005859374999 L 7.937347412109375 1.8931005859374999 L 7.937347412109375 1.8406103515624999 M 8.38671875 2.16470703125 Q 8.38671875 2.178134765625 8.388702392578125 2.189273681640625 Q 8.39068603515625 2.20041259765625 8.39434814453125 2.2104833984375 Q 8.4056396484375 2.2410009765625 8.430511474609375 2.256412353515625 Q 8.45538330078125 2.27182373046875 8.48681640625 2.27182373046875 Q 8.51153564453125 2.27182373046875 8.534881591796875 2.264957275390625 Q 8.5582275390625 2.2580908203125 8.5838623046875 2.2434423828125 L 8.60675048828125 2.28219970703125 Q 8.57562255859375 2.30356201171875 8.544189453125 2.31393798828125 Q 8.51275634765625 2.32431396484375 8.4788818359375 2.32431396484375 Q 8.44683837890625 2.32431396484375 8.419525146484375 2.3136328125 Q 8.3922119140625 2.30295166015625 8.372528076171875 2.28189453125 Q 8.35284423828125 2.26083740234375 8.341705322265625 2.229404296875 Q 8.33056640625 2.19797119140625 8.33056640625 2.156162109375 Q 8.33056640625 2.12228759765625 8.34002685546875 2.092227783203125 Q 8.3494873046875 2.06216796875 8.368255615234375 2.039737548828125 Q 8.38702392578125 2.01730712890625 8.414794921875 2.0041845703125 Q 8.44256591796875 1.9910620117187499 8.4794921875 1.9910620117187499 Q 8.51519775390625 1.9910620117187499 8.539154052734375 2.001895751953125 Q 8.5631103515625 2.0127294921875 8.578216552734375 2.030582275390625 Q 8.59332275390625 2.04843505859375 8.601104736328125 2.0713232421875 Q 8.60888671875 2.09421142578125 8.6119384765625 2.11801513671875 Q 8.61346435546875 2.12961181640625 8.613922119140625 2.141513671875 Q 8.6143798828125 2.15341552734375 8.6143798828125 2.16470703125 L 8.38671875 2.16470703125 M 8.47552490234375 2.03866943359375 Q 8.4556884765625 2.03866943359375 8.440887451171875 2.044315185546875 Q 8.42608642578125 2.0499609375 8.41571044921875 2.060489501953125 Q 8.40533447265625 2.07101806640625 8.399078369140625 2.08627685546875 Q 8.392822265625 2.10153564453125 8.3897705078125 2.12045654296875 L 8.55364990234375 2.12045654296875 Q 8.55242919921875 2.10275634765625 8.548004150390625 2.087802734375 Q 8.5435791015625 2.07284912109375 8.534423828125 2.06186279296875 Q 8.5252685546875 2.05087646484375 8.51092529296875 2.04477294921875 Q 8.49658203125 2.03866943359375 8.47552490234375 2.03866943359375 M 8.868896484375 2.062320556640625 Q 8.862945556640625 2.05331787109375 8.853485107421875 2.047672119140625 Q 8.844024658203125 2.0420263671875 8.832427978515625 2.039432373046875 Q 8.820831298828125 2.03683837890625 8.809844970703125 2.03683837890625 Q 8.797637939453125 2.03683837890625 8.78741455078125 2.0395849609375 Q 8.777191162109375 2.04233154296875 8.769866943359375 2.04751953125 Q 8.762542724609375 2.05270751953125 8.7584228515625 2.060184326171875 Q 8.754302978515625 2.0676611328125 8.754302978515625 2.07681640625 Q 8.754302978515625 2.092685546875 8.763916015625 2.101993408203125 Q 8.773529052734375 2.11130126953125 8.796112060546875 2.11923583984375 L 8.856842041015625 2.14059814453125 Q 8.895904541015625 2.153720703125 8.913909912109375 2.1763037109375 Q 8.931915283203125 2.19888671875 8.931915283203125 2.23031982421875 Q 8.931915283203125 2.251376953125 8.92352294921875 2.268924560546875 Q 8.915130615234375 2.28647216796875 8.89971923828125 2.298831787109375 Q 8.884307861328125 2.31119140625 8.862640380859375 2.318057861328125 Q 8.840972900390625 2.32492431640625 8.814422607421875 2.32492431640625 Q 8.777496337890625 2.32492431640625 8.754302978515625 2.3130224609375 Q 8.731109619140625 2.30112060546875 8.718597412109375 2.28158935546875 L 8.686859130859375 2.28158935546875 L 8.686859130859375 2.22909912109375 L 8.750030517578125 2.22909912109375 Q 8.750030517578125 2.2422216796875 8.75567626953125 2.251529541015625 Q 8.761322021484375 2.26083740234375 8.7706298828125 2.2666357421875 Q 8.779937744140625 2.27243408203125 8.79168701171875 2.2751806640625 Q 8.803436279296875 2.27792724609375 8.815643310546875 2.27792724609375 Q 8.827545166015625 2.27792724609375 8.838531494140625 2.275028076171875 Q 8.849517822265625 2.27212890625 8.85791015625 2.266483154296875 Q 8.866302490234375 2.26083740234375 8.871185302734375 2.25290283203125 Q 8.876068115234375 2.24496826171875 8.876068115234375 2.2348974609375 Q 8.876068115234375 2.219638671875 8.86614990234375 2.20895751953125 Q 8.856231689453125 2.1982763671875 8.832427978515625 2.1897314453125 L 8.772003173828125 2.1671484375 Q 8.735076904296875 2.15402587890625 8.71722412109375 2.133731689453125 Q 8.699371337890625 2.1134375 8.699371337890625 2.082919921875 Q 8.699371337890625 2.0627783203125 8.70684814453125 2.0456884765625 Q 8.714324951171875 2.0285986328125 8.728515625 2.016239013671875 Q 8.742706298828125 2.00387939453125 8.763153076171875 1.9968603515624999 Q 8.783599853515625 1.9898413085937499 8.809844970703125 1.9898413085937499 Q 8.843719482421875 1.9898413085937499 8.866607666015625 1.9993017578124999 Q 8.889495849609375 2.00876220703125 8.907806396484375 2.031650390625 L 8.937408447265625 2.031650390625 L 8.937408447265625 2.084140625 L 8.874847412109375 2.084140625 Q 8.874847412109375 2.0713232421875 8.868896484375 2.062320556640625 M 9.374114990234375 1.9382666015624999 Q 9.364349365234375 1.9248388671874999 9.35260009765625 1.9176672363281249 Q 9.340850830078125 1.9104956054687499 9.326812744140625 1.9066809082031249 Q 9.312774658203125 1.9028662109374999 9.298736572265625 1.9028662109374999 Q 9.275543212890625 1.9028662109374999 9.258148193359375 1.9082067871093749 Q 9.240753173828125 1.9135473632812499 9.22930908203125 1.9227026367187499 Q 9.217864990234375 1.9318579101562499 9.212066650390625 1.9440649414062499 Q 9.206268310546875 1.9562719726562499 9.206268310546875 1.9696997070312499 Q 9.206268310546875 1.9898413085937499 9.21343994140625 2.002200927734375 Q 9.220611572265625 2.014560546875 9.231597900390625 2.022037353515625 Q 9.242584228515625 2.02951416015625 9.255859375 2.03378662109375 Q 9.269134521484375 2.03805908203125 9.281341552734375 2.04233154296875 L 9.342987060546875 2.06247314453125 Q 9.370758056640625 2.0713232421875 9.3919677734375 2.08261474609375 Q 9.413177490234375 2.09390625 9.427520751953125 2.109317626953125 Q 9.441864013671875 2.12472900390625 9.4493408203125 2.14487060546875 Q 9.456817626953125 2.16501220703125 9.456817626953125 2.1915625 Q 9.456817626953125 2.2202490234375 9.445068359375 2.2446630859375 Q 9.433319091796875 2.2690771484375 9.412261962890625 2.28708251953125 Q 9.391204833984375 2.305087890625 9.362060546875 2.315311279296875 Q 9.332916259765625 2.32553466796875 9.298126220703125 2.32553466796875 Q 9.262420654296875 2.32553466796875 9.237091064453125 2.317447509765625 Q 9.211761474609375 2.3093603515625 9.19451904296875 2.295780029296875 Q 9.177276611328125 2.28219970703125 9.166900634765625 2.2648046875 Q 9.156524658203125 2.24740966796875 9.150726318359375 2.22909912109375 L 9.127532958984375 2.22909912109375 L 9.127532958984375 2.17660888671875 L 9.204437255859375 2.17660888671875 Q 9.204437255859375 2.2104833984375 9.21160888671875 2.224521484375 Q 9.218780517578125 2.2385595703125 9.231597900390625 2.247867431640625 Q 9.244415283203125 2.25717529296875 9.262115478515625 2.261905517578125 Q 9.279815673828125 2.2666357421875 9.301177978515625 2.2666357421875 Q 9.321929931640625 2.2666357421875 9.33856201171875 2.2617529296875 Q 9.355194091796875 2.2568701171875 9.366943359375 2.247562255859375 Q 9.378692626953125 2.23825439453125 9.38494873046875 2.224979248046875 Q 9.391204833984375 2.2117041015625 9.391204833984375 2.19491943359375 Q 9.391204833984375 2.1763037109375 9.3834228515625 2.163333740234375 Q 9.375640869140625 2.15036376953125 9.363433837890625 2.14120849609375 Q 9.351226806640625 2.13205322265625 9.33673095703125 2.1262548828125 Q 9.322235107421875 2.12045654296875 9.308807373046875 2.11618408203125 L 9.241973876953125 2.09726318359375 Q 9.220001220703125 2.09054931640625 9.20184326171875 2.08017333984375 Q 9.183685302734375 2.06979736328125 9.17071533203125 2.05484375 Q 9.157745361328125 2.03989013671875 9.150726318359375 2.019901123046875 Q 9.143707275390625 1.9999121093749999 9.143707275390625 1.9736669921874999 Q 9.143707275390625 1.9471166992187499 9.154083251953125 1.9239233398437499 Q 9.164459228515625 1.9007299804687499 9.184600830078125 1.8833349609374999 Q 9.204742431640625 1.8659399414062499 9.23388671875 1.8560217285156249 Q 9.263031005859375 1.8461035156249999 9.300567626953125 1.8461035156249999 Q 9.325286865234375 1.8461035156249999 9.34619140625 1.8519018554687499 Q 9.367095947265625 1.8577001953124999 9.384033203125 1.8682287597656249 Q 9.400970458984375 1.8787573242187499 9.4139404296875 1.8935583496093749 Q 9.426910400390625 1.9083593749999999 9.435760498046875 1.9260595703124999 L 9.458648681640625 1.9260595703124999 L 9.458648681640625 1.9785498046874999 L 9.383880615234375 1.9785498046874999 Q 9.383880615234375 1.9516943359374999 9.374114990234375 1.9382666015624999 M 9.557373046875 2.16470703125 Q 9.557373046875 2.178134765625 9.559356689453125 2.189273681640625 Q 9.56134033203125 2.20041259765625 9.56500244140625 2.2104833984375 Q 9.5762939453125 2.2410009765625 9.601165771484375 2.256412353515625 Q 9.62603759765625 2.27182373046875 9.657470703125 2.27182373046875 Q 9.68218994140625 2.27182373046875 9.705535888671875 2.264957275390625 Q 9.7288818359375 2.2580908203125 9.7545166015625 2.2434423828125 L 9.77740478515625 2.28219970703125 Q 9.74627685546875 2.30356201171875 9.71484375 2.31393798828125 Q 9.68341064453125 2.32431396484375 9.6495361328125 2.32431396484375 Q 9.61749267578125 2.32431396484375 9.590179443359375 2.3136328125 Q 9.5628662109375 2.30295166015625 9.543182373046875 2.28189453125 Q 9.52349853515625 2.26083740234375 9.512359619140625 2.229404296875 Q 9.501220703125 2.19797119140625 9.501220703125 2.156162109375 Q 9.501220703125 2.12228759765625 9.51068115234375 2.092227783203125 Q 9.5201416015625 2.06216796875 9.538909912109375 2.039737548828125 Q 9.55767822265625 2.01730712890625 9.58544921875 2.0041845703125 Q 9.61322021484375 1.9910620117187499 9.650146484375 1.9910620117187499 Q 9.68585205078125 1.9910620117187499 9.709808349609375 2.001895751953125 Q 9.7337646484375 2.0127294921875 9.748870849609375 2.030582275390625 Q 9.76397705078125 2.04843505859375 9.771759033203125 2.0713232421875 Q 9.779541015625 2.09421142578125 9.7825927734375 2.11801513671875 Q 9.78411865234375 2.12961181640625 9.784576416015625 2.141513671875 Q 9.7850341796875 2.15341552734375 9.7850341796875 2.16470703125 L 9.557373046875 2.16470703125 M 9.64617919921875 2.03866943359375 Q 9.6263427734375 2.03866943359375 9.611541748046875 2.044315185546875 Q 9.59674072265625 2.0499609375 9.58636474609375 2.060489501953125 Q 9.57598876953125 2.07101806640625 9.569732666015625 2.08627685546875 Q 9.5634765625 2.10153564453125 9.5604248046875 2.12045654296875 L 9.72430419921875 2.12045654296875 Q 9.72308349609375 2.10275634765625 9.718658447265625 2.087802734375 Q 9.7142333984375 2.07284912109375 9.705078125 2.06186279296875 Q 9.6959228515625 2.05087646484375 9.68157958984375 2.04477294921875 Q 9.667236328125 2.03866943359375 9.64617919921875 2.03866943359375 M 10.071136474609375 2.2629736328125 L 10.115692138671875 2.2629736328125 L 10.115692138671875 2.11862548828125 Q 10.115692138671875 2.0823095703125 10.09722900390625 2.063541259765625 Q 10.078765869140625 2.04477294921875 10.044281005859375 2.04477294921875 Q 10.024444580078125 2.04477294921875 10.004302978515625 2.0542333984375 Q 9.984161376953125 2.06369384765625 9.966156005859375 2.07773193359375 L 9.966156005859375 2.2629736328125 L 10.010711669921875 2.2629736328125 L 10.010711669921875 2.3154638671875 L 9.863006591796875 2.3154638671875 L 9.863006591796875 2.2629736328125 L 9.906951904296875 2.2629736328125 L 9.906951904296875 2.0517919921875 L 9.863006591796875 2.0517919921875 L 9.863006591796875 1.9993017578124999 L 9.963714599609375 1.9993017578124999 L 9.963714599609375 2.036533203125 L 9.964324951171875 2.036533203125 Q 9.974395751953125 2.02768310546875 9.98583984375 2.01974853515625 Q 9.997283935546875 2.01181396484375 10.009796142578125 2.006015625 Q 10.022308349609375 2.00021728515625 10.035888671875 1.9968603515624999 Q 10.049468994140625 1.9935034179687499 10.064422607421875 1.9935034179687499 Q 10.089752197265625 1.9935034179687499 10.110198974609375 2.0005224609375 Q 10.130645751953125 2.00754150390625 10.144989013671875 2.021884765625 Q 10.159332275390625 2.03622802734375 10.1671142578125 2.058658447265625 Q 10.174896240234375 2.0810888671875 10.174896240234375 2.1116064453125 L 10.174896240234375 2.2629736328125 L 10.218841552734375 2.2629736328125 L 10.218841552734375 2.3154638671875 L 10.071136474609375 2.3154638671875 L 10.071136474609375 2.2629736328125 M 10.457183837890625 2.062320556640625 Q 10.45123291015625 2.05331787109375 10.4417724609375 2.047672119140625 Q 10.43231201171875 2.0420263671875 10.42071533203125 2.039432373046875 Q 10.40911865234375 2.03683837890625 10.39813232421875 2.03683837890625 Q 10.38592529296875 2.03683837890625 10.375701904296875 2.0395849609375 Q 10.365478515625 2.04233154296875 10.358154296875 2.04751953125 Q 10.350830078125 2.05270751953125 10.346710205078125 2.060184326171875 Q 10.34259033203125 2.0676611328125 10.34259033203125 2.07681640625 Q 10.34259033203125 2.092685546875 10.352203369140625 2.101993408203125 Q 10.36181640625 2.11130126953125 10.3843994140625 2.11923583984375 L 10.44512939453125 2.14059814453125 Q 10.48419189453125 2.153720703125 10.502197265625 2.1763037109375 Q 10.52020263671875 2.19888671875 10.52020263671875 2.23031982421875 Q 10.52020263671875 2.251376953125 10.511810302734375 2.268924560546875 Q 10.50341796875 2.28647216796875 10.488006591796875 2.298831787109375 Q 10.47259521484375 2.31119140625 10.450927734375 2.318057861328125 Q 10.42926025390625 2.32492431640625 10.4027099609375 2.32492431640625 Q 10.36578369140625 2.32492431640625 10.34259033203125 2.3130224609375 Q 10.31939697265625 2.30112060546875 10.306884765625 2.28158935546875 L 10.275146484375 2.28158935546875 L 10.275146484375 2.22909912109375 L 10.33831787109375 2.22909912109375 Q 10.33831787109375 2.2422216796875 10.343963623046875 2.251529541015625 Q 10.349609375 2.26083740234375 10.358917236328125 2.2666357421875 Q 10.36822509765625 2.27243408203125 10.379974365234375 2.2751806640625 Q 10.3917236328125 2.27792724609375 10.4039306640625 2.27792724609375 Q 10.41583251953125 2.27792724609375 10.42681884765625 2.275028076171875 Q 10.43780517578125 2.27212890625 10.446197509765625 2.266483154296875 Q 10.45458984375 2.26083740234375 10.45947265625 2.25290283203125 Q 10.46435546875 2.24496826171875 10.46435546875 2.2348974609375 Q 10.46435546875 2.219638671875 10.454437255859375 2.20895751953125 Q 10.44451904296875 2.1982763671875 10.42071533203125 2.1897314453125 L 10.36029052734375 2.1671484375 Q 10.3233642578125 2.15402587890625 10.305511474609375 2.133731689453125 Q 10.28765869140625 2.1134375 10.28765869140625 2.082919921875 Q 10.28765869140625 2.0627783203125 10.295135498046875 2.0456884765625 Q 10.3026123046875 2.0285986328125 10.316802978515625 2.016239013671875 Q 10.33099365234375 2.00387939453125 10.3514404296875 1.9968603515624999 Q 10.37188720703125 1.9898413085937499 10.39813232421875 1.9898413085937499 Q 10.4320068359375 1.9898413085937499 10.45489501953125 1.9993017578124999 Q 10.477783203125 2.00876220703125 10.49609375 2.031650390625 L 10.52569580078125 2.031650390625 L 10.52569580078125 2.084140625 L 10.463134765625 2.084140625 Q 10.463134765625 2.0713232421875 10.457183837890625 2.062320556640625 M 10.638153076171875 2.16470703125 Q 10.638153076171875 2.178134765625 10.64013671875 2.189273681640625 Q 10.642120361328125 2.20041259765625 10.645782470703125 2.2104833984375 Q 10.657073974609375 2.2410009765625 10.68194580078125 2.256412353515625 Q 10.706817626953125 2.27182373046875 10.738250732421875 2.27182373046875 Q 10.762969970703125 2.27182373046875 10.78631591796875 2.264957275390625 Q 10.809661865234375 2.2580908203125 10.835296630859375 2.2434423828125 L 10.858184814453125 2.28219970703125 Q 10.827056884765625 2.30356201171875 10.795623779296875 2.31393798828125 Q 10.764190673828125 2.32431396484375 10.730316162109375 2.32431396484375 Q 10.698272705078125 2.32431396484375 10.67095947265625 2.3136328125 Q 10.643646240234375 2.30295166015625 10.62396240234375 2.28189453125 Q 10.604278564453125 2.26083740234375 10.5931396484375 2.229404296875 Q 10.582000732421875 2.19797119140625 10.582000732421875 2.156162109375 Q 10.582000732421875 2.12228759765625 10.591461181640625 2.092227783203125 Q 10.600921630859375 2.06216796875 10.61968994140625 2.039737548828125 Q 10.638458251953125 2.01730712890625 10.666229248046875 2.0041845703125 Q 10.694000244140625 1.9910620117187499 10.730926513671875 1.9910620117187499 Q 10.766632080078125 1.9910620117187499 10.79058837890625 2.001895751953125 Q 10.814544677734375 2.0127294921875 10.82965087890625 2.030582275390625 Q 10.844757080078125 2.04843505859375 10.8525390625 2.0713232421875 Q 10.860321044921875 2.09421142578125 10.863372802734375 2.11801513671875 Q 10.864898681640625 2.12961181640625 10.8653564453125 2.141513671875 Q 10.865814208984375 2.15341552734375 10.865814208984375 2.16470703125 L 10.638153076171875 2.16470703125 M 10.726959228515625 2.03866943359375 Q 10.707122802734375 2.03866943359375 10.69232177734375 2.044315185546875 Q 10.677520751953125 2.0499609375 10.667144775390625 2.060489501953125 Q 10.656768798828125 2.07101806640625 10.6505126953125 2.08627685546875 Q 10.644256591796875 2.10153564453125 10.641204833984375 2.12045654296875 L 10.805084228515625 2.12045654296875 Q 10.803863525390625 2.10275634765625 10.7994384765625 2.087802734375 Q 10.795013427734375 2.07284912109375 10.785858154296875 2.06186279296875 Q 10.776702880859375 2.05087646484375 10.762359619140625 2.04477294921875 Q 10.748016357421875 2.03866943359375 10.726959228515625 2.03866943359375" fill="#337551" fill-rule="nonzero"></path></g></g><defs><clipPath id="SvgjsClipPath15136"><path d=" M 0.9799345496386982 -9.551301263415962 h 12.668793010097604 v 9.301301263415962 h -12.668793010097604 Z"></path></clipPath><clipPath id="a332102d5-3572-46ea-b85c-42b87881644743e4e003-6fd4-465f-a5f9-2e88c8287742"><path d=" M 0.08556638067244549 -0.08147094365188678 L 14.54310544484073 -0.08147094365188678 L 14.54310544484073 -9.719830319764077 L 0.08556638067244549 -9.719830319764077 Z"></path></clipPath><clipPath id="b332102d5-3572-46ea-b85c-42b87881644743e4e003-6fd4-465f-a5f9-2e88c8287742"><path d=" M 0.08556638067244549 -9.719830319764077 L 14.54310544484073 -9.719830319764077 L 14.54310544484073 -0.08172194259397259 L 0.08556638067244549 -0.08172194259397259 Z"></path></clipPath><clipPath id="c332102d5-3572-46ea-b85c-42b87881644743e4e003-6fd4-465f-a5f9-2e88c8287742"><path d=" M 0.08556638067244549 -9.719830319764077 L 14.54310544484073 -9.719830319764077 L 14.54310544484073 -0.08172194259397259 L 0.08556638067244549 -0.08172194259397259 Z"></path></clipPath></defs></svg>