<svg xmlns="http://www.w3.org/2000/svg" version="1.1" xmlns:xlink="http://www.w3.org/1999/xlink" xmlns:svgjs="http://svgjs.dev/svgjs" viewBox="0 0 27.54464893285491 7.802558611767595"><g transform="matrix(0.725943711587091,0,0,0.725943711587091,9.93634518892068,2.9276177789219067)"><rect width="30.49024956157345" height="30.49024956157345" x="-9.960997077386162" y="-13.903889211939068" fill="#ffffff"></rect><g clip-path="url(#SvgjsClipPath14576)"><g clip-path="url(#a142feab5-5753-4f7f-a395-733805fc046ce9f97ebe-caf9-43de-b7c6-8537f70300cc)"><path d=" M -1.8193820875385658 1.9814704230169298 C -1.8193820875385658 2.1409786562146054 -1.9486051639976418 2.270306586072661 -2.108200775027801 2.270306586072661 L -5.462216350453396 2.270306586072661 C -5.621794485917058 2.270306586072661 -5.7511136779918655 2.1409786562146054 -5.7511136779918655 1.9814704230169298 L -5.7511136779918655 -0.7207152598689003 C -5.7511136779918655 -0.8802584441995691 -5.621794485917058 -1.0095776362743756 -5.462216350453397 -1.0095776362743756 L -2.108200775027802 -1.0095776362743756 C -1.9486051639976427 -1.0095776362743756 -1.8193820875385676 -0.8802584441995691 -1.8193820875385676 -0.7207152598689003 L -1.8193820875385676 1.9814704230169298" fill="#abdc57" transform="matrix(1,0,0,1,0,0)" fill-rule="nonzero"></path></g><g clip-path="url(#b142feab5-5753-4f7f-a395-733805fc046ce9f97ebe-caf9-43de-b7c6-8537f70300cc)"><path d=" M -1.8193820875385658 1.9814704230169298 C -1.8193820875385658 2.1409786562146054 -1.9486051639976418 2.270306586072661 -2.108200775027801 2.270306586072661 L -5.462216350453396 2.270306586072661 C -5.621794485917058 2.270306586072661 -5.7511136779918655 2.1409786562146054 -5.7511136779918655 1.9814704230169298 L -5.7511136779918655 -0.7207152598689003 C -5.7511136779918655 -0.8802584441995691 -5.621794485917058 -1.0095776362743756 -5.462216350453397 -1.0095776362743756 L -2.108200775027802 -1.0095776362743756 C -1.9486051639976427 -1.0095776362743756 -1.8193820875385676 -0.8802584441995691 -1.8193820875385676 -0.7207152598689003 Z" fill="none" transform="matrix(1,0,0,1,0,0)" fill-rule="nonzero" stroke-dasharray="none" stroke-miterlimit="4" stroke-linejoin="miter" stroke-linecap="butt" stroke-width="0.15533157280498944" stroke="#231f20"></path></g><g clip-path="url(#a142feab5-5753-4f7f-a395-733805fc046ce9f97ebe-caf9-43de-b7c6-8537f70300cc)"><path d=" M -2.11457061901581 1.7785790959914554 C -2.11457061901581 1.9141894920050366 -2.224387078880416 2.024093329702126 -2.359997474893998 2.024093329702126 L -5.210402175020703 2.024093329702126 C -5.346021308817533 2.024093329702126 -5.455995048780608 1.9141894920050366 -5.455995048780608 1.7785790959914554 L -5.455995048780608 -0.517832670626675 C -5.455995048780608 -0.6534430666402562 -5.346021308817533 -0.763338166554097 -5.210402175020703 -0.763338166554097 L -2.359997474893998 -0.763338166554097 C -2.224387078880416 -0.763338166554097 -2.11457061901581 -0.6534430666402562 -2.11457061901581 -0.517832670626675 L -2.11457061901581 1.7785790959914554" fill="#e6f0c4" transform="matrix(1,0,0,1,0,0)" fill-rule="nonzero"></path></g><g clip-path="url(#a142feab5-5753-4f7f-a395-733805fc046ce9f97ebe-caf9-43de-b7c6-8537f70300cc)"><path d=" M -2.11457061901581 1.7785790959914554 C -2.11457061901581 1.9141894920050366 -2.224387078880416 2.024093329702126 -2.359997474893998 2.024093329702126 L -5.210402175020703 2.024093329702126 C -5.346021308817533 2.024093329702126 -5.455995048780608 1.9141894920050366 -5.455995048780608 1.7785790959914554 L -5.455995048780608 -0.517832670626675 C -5.455995048780608 -0.6534430666402562 -5.346021308817533 -0.763338166554097 -5.210402175020703 -0.763338166554097 L -2.359997474893998 -0.763338166554097 C -2.224387078880416 -0.763338166554097 -2.11457061901581 -0.6534430666402562 -2.11457061901581 -0.517832670626675 Z" fill="none" transform="matrix(1,0,0,1,0,0)" fill-rule="nonzero" stroke-dasharray="none" stroke-miterlimit="4" stroke-linejoin="miter" stroke-linecap="butt" stroke-width="0.07767015529411886" stroke="#231f20"></path></g><g clip-path="url(#a142feab5-5753-4f7f-a395-733805fc046ce9f97ebe-caf9-43de-b7c6-8537f70300cc)"><path d=" M -1.4533301339176292 3.5076640718641077 C -1.4231585683612566 3.5549180036709016 -1.5179547788220384 3.6920487739696872 -1.5977394776622464 3.6920487739696872 L -5.969549521416061 3.6920487739696872 C -6.04927305577353 3.6920487739696872 -6.154082765836862 3.564022773815628 -6.114037505209913 3.5076640718641077 C -6.073843702267744 3.4513053699125873 -5.365052200732325 2.4884366070831665 -5.365052200732325 2.4884366070831665 L -2.2022542739124793 2.4884366070831665 C -2.2022542739124793 2.4884366070831665 -1.483519175040498 3.4603315000080794 -1.4533301339176292 3.5076640718641077" fill="#abdc57" transform="matrix(1,0,0,1,0,0)" fill-rule="nonzero"></path></g><g clip-path="url(#c142feab5-5753-4f7f-a395-733805fc046ce9f97ebe-caf9-43de-b7c6-8537f70300cc)"><path d=" M -1.4533301339176292 3.5076640718641077 C -1.4231585683612566 3.5549180036709016 -1.5179547788220384 3.6920487739696872 -1.5977394776622464 3.6920487739696872 L -5.969549521416061 3.6920487739696872 C -6.04927305577353 3.6920487739696872 -6.154082765836862 3.564022773815628 -6.114037505209913 3.5076640718641077 C -6.073843702267744 3.4513053699125873 -5.365052200732325 2.4884366070831665 -5.365052200732325 2.4884366070831665 L -2.2022542739124793 2.4884366070831665 C -2.2022542739124793 2.4884366070831665 -1.483519175040498 3.4603315000080794 -1.4533301339176292 3.5076640718641077 Z" fill="none" transform="matrix(1,0,0,1,0,0)" fill-rule="nonzero" stroke-dasharray="none" stroke-miterlimit="4" stroke-linejoin="miter" stroke-linecap="butt" stroke-width="0.15533157280498944" stroke="#231f20"></path></g><g clip-path="url(#a142feab5-5753-4f7f-a395-733805fc046ce9f97ebe-caf9-43de-b7c6-8537f70300cc)"><path d=" M -2.378661379912362 1.6682995336146895 C -2.356362557062706 1.6869547008498054 -2.3546849026790326 1.722237869606431 -2.375472089026733 1.7471929785635703 L -2.405818410248071 1.7838130281571862 C -2.4266055965957714 1.808776874897573 -2.4616441074214457 1.8138535269648335 -2.4840827348030743 1.795198359729718 L -5.191747007785587 -0.4513031889741349 C -5.2142031107337115 -0.4698884539432644 -5.215557467137199 -0.5051628849166419 -5.194927560887967 -0.5301966339230154 L -5.164589977449877 -0.5667467812506446 C -5.143811528885426 -0.5917018902077835 -5.1088429203257375 -0.5968571823242794 -5.086386817377612 -0.5782020150891631 L -2.3786613799123613 1.6682995336146895" fill="#f2a738" transform="matrix(1,0,0,1,0,0)" fill-rule="nonzero"></path></g><g clip-path="url(#a142feab5-5753-4f7f-a395-733805fc046ce9f97ebe-caf9-43de-b7c6-8537f70300cc)"><path d=" M -2.378661379912362 1.6682995336146895 C -2.356362557062706 1.6869547008498054 -2.3546849026790326 1.722237869606431 -2.375472089026733 1.7471929785635703 L -2.405818410248071 1.7838130281571862 C -2.4266055965957714 1.808776874897573 -2.4616441074214457 1.8138535269648335 -2.4840827348030743 1.795198359729718 L -5.191747007785587 -0.4513031889741349 C -5.2142031107337115 -0.4698884539432644 -5.215557467137199 -0.5051628849166419 -5.194927560887967 -0.5301966339230154 L -5.164589977449877 -0.5667467812506446 C -5.143811528885426 -0.5917018902077835 -5.1088429203257375 -0.5968571823242794 -5.086386817377612 -0.5782020150891631 Z" fill="none" transform="matrix(1,0,0,1,0,0)" fill-rule="nonzero" stroke-dasharray="none" stroke-miterlimit="4" stroke-linejoin="miter" stroke-linecap="butt" stroke-width="0.03883070875543529" stroke="#231f20"></path></g><g clip-path="url(#a142feab5-5753-4f7f-a395-733805fc046ce9f97ebe-caf9-43de-b7c6-8537f70300cc)"><path d=" M -2.9940809296564703 0.7172617293034638 C -2.9858936267528158 0.7241645780696191 -2.9959071263553643 0.7498798741693595 -3.0165195570380994 0.7748349831264976 L -3.0470231583579066 0.8114637705033623 C -3.067653064607138 0.8364188794605003 -3.091166439328307 0.8510546664013994 -3.0993624800152104 0.8442304576844788 L -4.094849387710527 0.018335185055373238 C -4.103036690614182 0.011502238555204825 -4.093031928794881 -0.014282959810521856 -4.072323382496415 -0.03922933098441206 L -4.041985799058326 -0.0758755939277731 C -4.021277252759861 -0.10074332505242867 -3.9977638780386906 -0.1154664898258102 -3.989567837351787 -0.10863354332564179 L -2.9940809296564703 0.7172617293034631" fill="#f1ca8b" transform="matrix(1,0,0,1,0,0)" fill-rule="nonzero"></path></g><g clip-path="url(#a142feab5-5753-4f7f-a395-733805fc046ce9f97ebe-caf9-43de-b7c6-8537f70300cc)"><path d=" M -2.9940809296564703 0.7172617293034638 C -2.9858936267528158 0.7241645780696191 -2.9959071263553643 0.7498798741693595 -3.0165195570380994 0.7748349831264976 L -3.0470231583579066 0.8114637705033623 C -3.067653064607138 0.8364188794605003 -3.091166439328307 0.8510546664013994 -3.0993624800152104 0.8442304576844788 L -4.094849387710527 0.018335185055373238 C -4.103036690614182 0.011502238555204825 -4.093031928794881 -0.014282959810521856 -4.072323382496415 -0.03922933098441206 L -4.041985799058326 -0.0758755939277731 C -4.021277252759861 -0.10074332505242867 -3.9977638780386906 -0.1154664898258102 -3.989567837351787 -0.10863354332564179 Z" fill="none" transform="matrix(1,0,0,1,0,0)" fill-rule="nonzero" stroke-dasharray="none" stroke-miterlimit="4" stroke-linejoin="miter" stroke-linecap="butt" stroke-width="0.03883070875543529" stroke="#231f20"></path></g><g clip-path="url(#a142feab5-5753-4f7f-a395-733805fc046ce9f97ebe-caf9-43de-b7c6-8537f70300cc)"><path d=" M -3.089051895782219 1.5193465425809576 C -3.0744772733240584 1.531544487995581 -3.0793267430268636 1.5615937245864773 -3.099956649276095 1.5865400957603675 L -3.130302970497433 1.6232475231864663 C -3.1510901568451333 1.6481239920943698 -3.1797588236827985 1.6584433141106096 -3.1943159705744626 1.6463065331787243 L -4.962764659980696 0.17912787239054895 C -4.977400446921594 0.16699109145866364 -4.972542239435541 0.13688069038502926 -4.95191233318631 0.11193431921113906 L -4.921434945216248 0.07536669631701276 C -4.900796301183767 0.050341685093888255 -4.8721276343461035 0.040031100860896895 -4.85741320735597 0.05215914400953392 L -3.0890518957822186 1.5193465425809576" fill="#f4dbb0" transform="matrix(1,0,0,1,0,0)" fill-rule="nonzero"></path></g><g clip-path="url(#a142feab5-5753-4f7f-a395-733805fc046ce9f97ebe-caf9-43de-b7c6-8537f70300cc)"><path d=" M -3.089051895782219 1.5193465425809576 C -3.0744772733240584 1.531544487995581 -3.0793267430268636 1.5615937245864773 -3.099956649276095 1.5865400957603675 L -3.130302970497433 1.6232475231864663 C -3.1510901568451333 1.6481239920943698 -3.1797588236827985 1.6584433141106096 -3.1943159705744626 1.6463065331787243 L -4.962764659980696 0.17912787239054895 C -4.977400446921594 0.16699109145866364 -4.972542239435541 0.13688069038502926 -4.95191233318631 0.11193431921113906 L -4.921434945216248 0.07536669631701276 C -4.900796301183767 0.050341685093888255 -4.8721276343461035 0.040031100860896895 -4.85741320735597 0.05215914400953392 Z" fill="none" transform="matrix(1,0,0,1,0,0)" fill-rule="nonzero" stroke-dasharray="none" stroke-miterlimit="4" stroke-linejoin="miter" stroke-linecap="butt" stroke-width="0.03883070875543529" stroke="#231f20"></path></g><g clip-path="url(#a142feab5-5753-4f7f-a395-733805fc046ce9f97ebe-caf9-43de-b7c6-8537f70300cc)"><path d=" M -0.4026291738763179 0.47580182702000284 C -0.4469297349451882 0.27485028787565113 -1.0301767667690624 0.24784179985516253 -1.8193820875385658 0.3266566047548085 L -1.8193820875385658 0.40401219985198833 C -1.0122730488933005 0.3231265403224959 -0.5076835418706009 0.3601747412952787 -0.47847313247154233 0.49248225524100353 C -0.4775469274472224 0.49662396450069624 -0.47710130050155897 0.5008355760263763 -0.47710130050155897 0.505143303167787 C -0.47710130050155897 0.6496050736118941 -0.9794451972294462 0.9127958428338712 -1.819382087538565 1.1906923012627328 C -2.310008616930485 1.353049051799354 -2.915729227268983 1.520403814354001 -3.604415089550068 1.6720917315444503 C -4.443591792716586 1.8568608961129551 -5.180903418774449 1.9688880151393806 -5.747470022377324 2.0175050411329094 C -6.465707067604152 2.079088937466912 -6.909368012036471 2.0386504765937903 -6.93668232247065 1.9148186123989142 C -6.940168697986721 1.89902943806924 -6.934663894540293 1.8797626260067433 -6.920403832279072 1.8573764253246043 C -6.846464710431976 1.7416444862009008 -6.588726317956937 1.5952604034421678 -6.205321126804878 1.438941461130121 C -6.070051504337981 1.4431880237887937 -5.917026706310542 1.4431880237887937 -5.751113677991864 1.4395531059575015 C -5.194709116306759 1.4274163250256158 -4.492890365803482 1.3742381761764757 -3.8234276266686518 1.2987000399949413 C -3.2689453772981714 1.2361375119371294 -2.4503461536813953 1.1220570138473542 -1.819382087538565 0.9868922447794355 C -1.2824453069306676 0.8719117550150857 -0.8812237757353314 0.7416838334824554 -0.8955450024792899 0.6147500562344337 C -0.9093681755780976 0.49248225524100353 -1.299824757811531 0.45311854170742194 -1.819382087538565 0.4571816109178799 L -1.819382087538565 0.5348080772957577 C -1.2964082845614469 0.5311731594644655 -1.0014381976654105 0.5687980541316358 -0.9735209801870983 0.6235490039654699 C -0.9888645275711099 0.6847571756197954 -1.2822967646154453 0.7910610466185866 -1.819382087538565 0.907640550717375 C -2.3018213140268298 1.0123803585147204 -2.9807383346363183 1.125394847048204 -3.8321479343504525 1.2214929872129825 C -4.620121227681945 1.3104174073309092 -5.26759096638081 1.3523675047059864 -5.751113677991864 1.3624159554415285 C -5.839337498790934 1.364297705914304 -5.927581674999635 1.365057954469855 -6.0158248214988905 1.3646965168693348 C -5.932090644630607 1.3330919548602416 -5.843646802591337 1.3012864238364377 -5.751113677991864 1.2693410882806608 L -5.751113677991864 1.187468059244111 C -5.92078395310731 1.2458801402589814 -6.076954353104136 1.3040563011261481 -6.217388005470777 1.3612800436192498 C -6.54887328856145 1.3508121792877894 -6.733782257661927 1.3180454921066729 -6.753241300955886 1.2747410383281088 C -6.739741425837266 1.2093212551481032 -6.3902038825556104 1.0885301395236353 -5.751113677991864 0.9589488139513791 L -5.751113677991864 0.8804136181156788 C -6.3101832635676995 0.9925892794573259 -6.723480411212184 1.113293017249311 -6.809250491577475 1.2209949335678294 L -6.830186220240397 1.2844836666499608 L -6.795602074143634 1.3417510980593041 C -6.738526873965753 1.3872137843001973 -6.59065736805481 1.4157339088226415 -6.380076791770834 1.4302910557143056 C -6.700377712303685 1.5718955710362192 -6.915134948980348 1.704858418725566 -6.985867304375318 1.8155923458312437 C -7.011617551608051 1.8558647888226485 -7.020599992787301 1.8949314177257879 -7.012526281065874 1.9314903028366661 C -6.97076841492226 2.120951657009506 -6.44969944869327 2.155850363303207 -5.728631361693994 2.0932004574129124 C -5.104666259933049 2.038886396741493 -4.330961766646027 1.9116118459467883 -3.5877346613290673 1.7479444279229228 C -2.972918018629091 1.612473836441314 -2.349844170759474 1.4457744076302892 -1.819382087538565 1.2716653386247079 C -0.9673783185635463 0.9920912258121728 -0.3546936949761559 0.6936347634000652 -0.402629173876317 0.47580182702000284" fill="#231f20" transform="matrix(1,0,0,1,0,0)" fill-rule="nonzero"></path></g></g><g><path d=" M 0.32837841796875 1.1286357421875 L 0.46659667968749996 1.1286357421875 L 0.46659667968749996 0.26851318359375 L 0.3046083984375 0.26851318359375 L 0.3046083984375 0.44106591796874994 L 0.017607421875 0.44106591796874994 L 0.017607421875 0.03521484374999995 L 1.23163916015625 0.03521484374999995 L 1.23163916015625 0.44106591796874994 L 0.94287744140625 0.44106591796874994 L 0.94287744140625 0.26851318359375 L 0.7588798828125 0.26851318359375 L 0.7588798828125 1.1286357421875 L 0.8997392578125 1.1286357421875 L 0.8997392578125 1.369857421875 L 0.32837841796875 1.369857421875 L 0.32837841796875 1.1286357421875 M 1.4772626953124999 0.9710493164062499 L 1.47990380859375 0.9983408203124999 Q 1.489587890625 1.03795751953125 1.512917724609375 1.0678901367187499 Q 1.5362475585937498 1.09782275390625 1.56794091796875 1.1180712890625 Q 1.59963427734375 1.13831982421875 1.63837060546875 1.148444091796875 Q 1.67710693359375 1.158568359375 1.7167236328125 1.158568359375 Q 1.7563403320312498 1.158568359375 1.791995361328125 1.153726318359375 Q 1.827650390625 1.14888427734375 1.8611044921875 1.1405207519531249 Q 1.8945585937499998 1.1321572265625 1.926251953125 1.121152587890625 Q 1.9579453125 1.1101479492187498 1.9905190429687498 1.09782275390625 L 2.08735986328125 1.2782988281249998 Q 2.0371787109375 1.3091118164062499 1.995361083984375 1.330680908203125 Q 1.95354345703125 1.35225 1.91128564453125 1.3663359375 Q 1.86902783203125 1.380421875 1.82148779296875 1.387024658203125 Q 1.77394775390625 1.39362744140625 1.71056103515625 1.39362744140625 Q 1.5917109374999998 1.39362744140625 1.49927197265625 1.354450927734375 Q 1.4068330078125 1.3152744140625 1.3438864746093748 1.2483662109375 Q 1.28093994140625 1.1814580078124999 1.247926025390625 1.09166015625 Q 1.214912109375 1.0018623046875 1.214912109375 0.9015 Q 1.214912109375 0.8011376953124999 1.249686767578125 0.7131005859374999 Q 1.2844614257812499 0.6250634765624999 1.34784814453125 0.559475830078125 Q 1.41123486328125 0.49388818359375 1.49927197265625 0.4560322265625 Q 1.5873090820312499 0.41817626953125 1.6947143554687498 0.41817626953125 Q 1.80211962890625 0.41817626953125 1.885314697265625 0.453831298828125 Q 1.968509765625 0.4894863281249999 2.0257338867187498 0.552432861328125 Q 2.0829580078125 0.6153793945312499 2.11377099609375 0.700335205078125 Q 2.144583984375 0.7852910156249999 2.14722509765625 0.8830122070312499 Q 2.1498662109374997 0.905021484375 2.1503063964843747 0.9265905761718749 Q 2.1507465820312497 0.94815966796875 2.14898583984375 0.9710493164062499 L 1.4772626953124999 0.9710493164062499 M 1.6876713867187498 0.63826904296875 Q 1.63837060546875 0.63826904296875 1.603595947265625 0.650154052734375 Q 1.5688212890625 0.6620390625 1.54505126953125 0.682727783203125 Q 1.52128125 0.70341650390625 1.5071953125 0.72982763671875 Q 1.493109375 0.7562387695312499 1.48518603515625 0.7852910156249999 L 1.8663867187499998 0.7852910156249999 Q 1.8602241210937498 0.7553583984375 1.848779296875 0.7289472656249999 Q 1.83733447265625 0.7025361328124999 1.8170859375 0.6822875976562499 Q 1.79683740234375 0.6620390625 1.765584228515625 0.650154052734375 Q 1.7343310546875 0.63826904296875 1.6876713867187498 0.63826904296875 M 2.8788134765624998 0.7729658203124999 Q 2.84095751953125 0.7254257812499999 2.7942978515625 0.7012155761718749 Q 2.7476381835937502 0.6770053710937499 2.68425146484375 0.6805268554687499 Q 2.63318994140625 0.6770053710937499 2.591372314453125 0.69461279296875 Q 2.5495546875 0.71222021484375 2.519181884765625 0.7439135742187499 Q 2.48880908203125 0.77560693359375 2.47208203125 0.819185302734375 Q 2.45535498046875 0.8627636718749999 2.45535498046875 0.9173466796874999 Q 2.45535498046875 0.9657670898437499 2.47296240234375 1.0089052734375 Q 2.49056982421875 1.05204345703125 2.5209426269531248 1.083296630859375 Q 2.5513154296875 1.1145498046875 2.593133056640625 1.1321572265625 Q 2.63495068359375 1.1497646484375 2.68425146484375 1.1532861328125 Q 2.72562890625 1.1497646484375 2.759523193359375 1.136118896484375 Q 2.79341748046875 1.12247314453125 2.81982861328125 1.100904052734375 Q 2.84623974609375 1.0793349609375 2.8651677246093747 1.052483642578125 Q 2.884095703125 1.02563232421875 2.89466015625 1.0018623046875 L 3.13676220703125 1.0687705078124998 Q 3.1217958984375 1.1215927734375 3.0852604980468747 1.1788168945312498 Q 3.04872509765625 1.236041015625 2.990180419921875 1.283140869140625 Q 2.9316357421875 1.3302407226562498 2.8510817871093748 1.3610537109374998 Q 2.77052783203125 1.3918666992187498 2.6675244140625 1.3918666992187498 Q 2.56276025390625 1.3918666992187498 2.47472314453125 1.3535705566406249 Q 2.38668603515625 1.3152744140625 2.32329931640625 1.24924658203125 Q 2.25991259765625 1.18321875 2.224257568359375 1.09430126953125 Q 2.1886025390625 1.0053837890625 2.1886025390625 0.9032607421875 Q 2.1886025390625 0.80201806640625 2.225137939453125 0.715301513671875 Q 2.26167333984375 0.6285849609374999 2.3259404296875 0.563877685546875 Q 2.39020751953125 0.49917041015624997 2.478684814453125 0.46307519531249997 Q 2.567162109375 0.42697998046874996 2.6710458984375 0.43050146484374996 Q 2.7449970703125 0.42697998046874996 2.81454638671875 0.447228515625 Q 2.884095703125 0.4674770507812499 2.94660205078125 0.50797412109375 L 3.1217958984375 0.50797412109375 L 3.1217958984375 0.7729658203124999 L 2.8788134765624998 0.7729658203124999 M 3.2133544921875 0 L 3.62448779296875 0 L 3.62448779296875 0.54230859375 Q 3.6764296874999998 0.4947685546874999 3.738495849609375 0.467917236328125 Q 3.8005620117187497 0.44106591796874994 3.8753935546875002 0.44106591796874994 Q 4.04002294921875 0.44106591796874994 4.1271796875 0.533064697265625 Q 4.21433642578125 0.6250634765624999 4.21433642578125 0.80201806640625 L 4.21433642578125 1.1286357421875 L 4.34815283203125 1.1286357421875 L 4.34815283203125 1.369857421875 L 3.940541015625 1.369857421875 L 3.940541015625 0.86364404296875 Q 3.940541015625 0.7870517578124999 3.9026850585937503 0.743033203125 Q 3.8648291015625 0.6990146484374999 3.8049638671875 0.6990146484374999 Q 3.7653471679687502 0.6990146484374999 3.7186875 0.72102392578125 Q 3.67202783203125 0.743033203125 3.62448779296875 0.7852910156249999 L 3.62448779296875 1.1286357421875 L 3.75830419921875 1.1286357421875 L 3.75830419921875 1.369857421875 L 3.2133544921875 1.369857421875 L 3.2133544921875 1.1286357421875 L 3.3542138671875 1.1286357421875 L 3.3542138671875 0.24122167968749997 L 3.2133544921875 0.24122167968749997 L 3.2133544921875 0 M 4.481969238281249 0.03521484374999995 L 5.514644531249999 0.03521484374999995 L 5.514644531249999 0.49036669921875 L 5.22852392578125 0.49036669921875 L 5.22852392578125 0.30284765625 L 4.912470703124999 0.30284765625 L 4.912470703124999 0.58368603515625 L 5.186266113281249 0.58368603515625 L 5.186266113281249 0.8398740234375 L 4.912470703124999 0.8398740234375 L 4.912470703124999 1.1286357421875 L 5.053330078125 1.1286357421875 L 5.053330078125 1.369857421875 L 4.481969238281249 1.369857421875 L 4.481969238281249 1.1286357421875 L 4.620187499999999 1.1286357421875 L 4.620187499999999 0.30284765625 L 4.481969238281249 0.30284765625 L 4.481969238281249 0.03521484374999995 M 5.57715087890625 0.9103037109375 Q 5.57715087890625 0.8108217773437499 5.613246093749999 0.7236650390624999 Q 5.649341308593749 0.63650830078125 5.7136083984375 0.57136083984375 Q 5.777875488281249 0.50621337890625 5.86679296875 0.46835742187499996 Q 5.955710449218749 0.43050146484374996 6.062235351562499 0.43050146484374996 Q 6.16876025390625 0.43050146484374996 6.258117919921874 0.46835742187499996 Q 6.3474755859375 0.50621337890625 6.411742675781249 0.57136083984375 Q 6.476009765624999 0.63650830078125 6.511664794921874 0.7236650390624999 Q 6.547319824218749 0.8108217773437499 6.547319824218749 0.9103037109375 Q 6.547319824218749 1.0097856445312499 6.512545166015625 1.097382568359375 Q 6.477770507812499 1.1849794921874999 6.413943603515624 1.2505671386718749 Q 6.350116699218749 1.3161547851562498 6.260759033203124 1.3540107421874998 Q 6.171401367187499 1.3918666992187498 6.062235351562499 1.3918666992187498 Q 5.952188964843749 1.3918666992187498 5.862831298828124 1.3540107421874998 Q 5.773473632812499 1.3161547851562498 5.710086914062499 1.2510073242187498 Q 5.6467001953125 1.1858598632812498 5.611925537109374 1.098262939453125 Q 5.57715087890625 1.010666015625 5.57715087890625 0.9103037109375 M 5.8403818359374995 0.9103037109375 Q 5.8403818359374995 0.9622456054687499 5.857989257812499 1.005823974609375 Q 5.875596679687499 1.04940234375 5.905969482421874 1.081095703125 Q 5.9363422851562495 1.1127890624999999 5.976399169921875 1.1303964843749998 Q 6.016456054687499 1.14800390625 6.062235351562499 1.14800390625 Q 6.108895019531249 1.14800390625 6.148951904296874 1.1308366699218748 Q 6.189008789062499 1.11366943359375 6.218501220703124 1.0819760742187499 Q 6.247993652343749 1.05028271484375 6.264720703124999 1.0067043457031248 Q 6.281447753906249 0.9631259765625 6.281447753906249 0.9103037109375 Q 6.281447753906249 0.8557207031249999 6.264720703124999 0.8117021484375 Q 6.247993652343749 0.76768359375 6.218501220703124 0.7368706054687499 Q 6.189008789062499 0.7060576171874999 6.148951904296874 0.689770751953125 Q 6.108895019531249 0.6734838867187499 6.062235351562499 0.6743642578125 Q 6.016456054687499 0.6734838867187499 5.976399169921875 0.689770751953125 Q 5.9363422851562495 0.7060576171874999 5.905969482421874 0.7368706054687499 Q 5.875596679687499 0.76768359375 5.857989257812499 0.8117021484375 Q 5.8403818359374995 0.8557207031249999 5.8403818359374995 0.9103037109375 M 7.506924316406249 0.78969287109375 L 7.259540039062499 0.78969287109375 L 7.259540039062499 0.6954931640625 Q 7.22344482421875 0.6954931640625 7.193512207031249 0.700335205078125 Q 7.163579589843749 0.70517724609375 7.141130126953125 0.7166220703124999 Q 7.1186806640624996 0.72806689453125 7.103274169921875 0.7483154296875 Q 7.08786767578125 0.7685639648437499 7.081705078124999 0.79849658203125 L 7.081705078124999 1.1286357421875 L 7.26746337890625 1.1286357421875 L 7.26746337890625 1.369857421875 L 6.67233251953125 1.369857421875 L 6.67233251953125 1.1286357421875 L 6.8087900390625 1.1286357421875 L 6.8087900390625 0.6990146484374999 L 6.67409326171875 0.6990146484374999 L 6.67409326171875 0.45779296875 L 7.079944335937499 0.45779296875 L 7.079944335937499 0.5220600585937499 Q 7.1186806640624996 0.4912470703124999 7.167101074218749 0.47452001953125 Q 7.2155214843749995 0.45779296875 7.272745605468749 0.45779296875 Q 7.330850097656249 0.45779296875 7.39247607421875 0.4586733398437499 Q 7.454102050781249 0.45955371093749997 7.506924316406249 0.45955371093749997 L 7.506924316406249 0.78969287109375 M 7.684759277343749 0.03521484374999995 L 8.74648681640625 0.03521484374999995 L 8.74648681640625 0.49036669921875 L 8.45948583984375 0.49036669921875 L 8.45948583984375 0.3010869140624999 L 8.117021484375 0.3010869140624999 L 8.117021484375 0.56431787109375 L 8.382013183593749 0.56431787109375 L 8.382013183593749 0.8196254882812499 L 8.117021484375 0.8196254882812499 L 8.117021484375 1.1286357421875 L 8.45948583984375 1.1286357421875 L 8.45948583984375 0.8918159179687499 L 8.74648681640625 0.8918159179687499 L 8.74648681640625 1.369857421875 L 7.684759277343749 1.369857421875 L 7.684759277343749 1.1286357421875 L 7.824738281249999 1.1286357421875 L 7.824738281249999 0.3010869140624999 L 7.684759277343749 0.3010869140624999 L 7.684759277343749 0.03521484374999995 M 8.835404296875 0.45779296875 L 9.311685058593751 0.45779296875 L 9.311685058593751 0.6990146484374999 L 9.200758300781251 0.6990146484374999 L 9.349541015625 1.09077978515625 L 9.49304150390625 0.6990146484374999 L 9.394439941406251 0.6990146484374999 L 9.394439941406251 0.45779296875 L 9.870720703125 0.45779296875 L 9.870720703125 0.6990146484374999 L 9.7492294921875 0.6990146484374999 L 9.477194824218751 1.37337890625 L 9.208681640625 1.37337890625 L 8.93664697265625 0.6990146484374999 L 8.835404296875 0.6990146484374999 L 8.835404296875 0.45779296875 M 10.2123046875 0.9710493164062499 L 10.21494580078125 0.9983408203124999 Q 10.2246298828125 1.03795751953125 10.247959716796874 1.0678901367187499 Q 10.27128955078125 1.09782275390625 10.30298291015625 1.1180712890625 Q 10.33467626953125 1.13831982421875 10.37341259765625 1.148444091796875 Q 10.41214892578125 1.158568359375 10.451765625 1.158568359375 Q 10.49138232421875 1.158568359375 10.527037353515626 1.153726318359375 Q 10.5626923828125 1.14888427734375 10.596146484375 1.1405207519531249 Q 10.6296005859375 1.1321572265625 10.6612939453125 1.121152587890625 Q 10.6929873046875 1.1101479492187498 10.72556103515625 1.09782275390625 L 10.82240185546875 1.2782988281249998 Q 10.772220703125 1.3091118164062499 10.730403076171875 1.330680908203125 Q 10.688585449218749 1.35225 10.64632763671875 1.3663359375 Q 10.60406982421875 1.380421875 10.55652978515625 1.387024658203125 Q 10.50898974609375 1.39362744140625 10.44560302734375 1.39362744140625 Q 10.3267529296875 1.39362744140625 10.23431396484375 1.354450927734375 Q 10.141875 1.3152744140625 10.078928466796874 1.2483662109375 Q 10.01598193359375 1.1814580078124999 9.982968017578125 1.09166015625 Q 9.9499541015625 1.0018623046875 9.9499541015625 0.9015 Q 9.9499541015625 0.8011376953124999 9.984728759765625 0.7131005859374999 Q 10.01950341796875 0.6250634765624999 10.08289013671875 0.559475830078125 Q 10.14627685546875 0.49388818359375 10.23431396484375 0.4560322265625 Q 10.32235107421875 0.41817626953125 10.42975634765625 0.41817626953125 Q 10.53716162109375 0.41817626953125 10.620356689453125 0.453831298828125 Q 10.7035517578125 0.4894863281249999 10.76077587890625 0.552432861328125 Q 10.818 0.6153793945312499 10.84881298828125 0.700335205078125 Q 10.8796259765625 0.7852910156249999 10.88226708984375 0.8830122070312499 Q 10.884908203125 0.905021484375 10.885348388671876 0.9265905761718749 Q 10.88578857421875 0.94815966796875 10.88402783203125 0.9710493164062499 L 10.2123046875 0.9710493164062499 M 10.42271337890625 0.63826904296875 Q 10.37341259765625 0.63826904296875 10.338637939453125 0.650154052734375 Q 10.303863281249999 0.6620390625 10.28009326171875 0.682727783203125 Q 10.2563232421875 0.70341650390625 10.2422373046875 0.72982763671875 Q 10.2281513671875 0.7562387695312499 10.22022802734375 0.7852910156249999 L 10.6014287109375 0.7852910156249999 Q 10.59526611328125 0.7553583984375 10.5838212890625 0.7289472656249999 Q 10.57237646484375 0.7025361328124999 10.5521279296875 0.6822875976562499 Q 10.53187939453125 0.6620390625 10.500626220703126 0.650154052734375 Q 10.469373046874999 0.63826904296875 10.42271337890625 0.63826904296875 M 11.8462734375 0.78969287109375 L 11.59888916015625 0.78969287109375 L 11.59888916015625 0.6954931640625 Q 11.5627939453125 0.6954931640625 11.532861328125 0.700335205078125 Q 11.5029287109375 0.70517724609375 11.480479248046874 0.7166220703124999 Q 11.45802978515625 0.72806689453125 11.442623291015625 0.7483154296875 Q 11.427216796875 0.7685639648437499 11.42105419921875 0.79849658203125 L 11.42105419921875 1.1286357421875 L 11.6068125 1.1286357421875 L 11.6068125 1.369857421875 L 11.011681640625 1.369857421875 L 11.011681640625 1.1286357421875 L 11.14813916015625 1.1286357421875 L 11.14813916015625 0.6990146484374999 L 11.0134423828125 0.6990146484374999 L 11.0134423828125 0.45779296875 L 11.41929345703125 0.45779296875 L 11.41929345703125 0.5220600585937499 Q 11.45802978515625 0.4912470703124999 11.5064501953125 0.47452001953125 Q 11.55487060546875 0.45779296875 11.6120947265625 0.45779296875 Q 11.67019921875 0.45779296875 11.7318251953125 0.4586733398437499 Q 11.793451171875 0.45955371093749997 11.8462734375 0.45955371093749997 L 11.8462734375 0.78969287109375 M 11.969525390625 0.45779296875 L 12.41675390625 0.45779296875 L 12.41675390625 0.6990146484374999 L 12.346324218749999 0.6990146484374999 L 12.477499511718749 1.0405986328124999 L 12.6121962890625 0.6990146484374999 L 12.533843261718749 0.6990146484374999 L 12.533843261718749 0.45779296875 L 12.981071777343749 0.45779296875 L 12.981071777343749 0.6990146484374999 L 12.88158984375 0.6990146484374999 L 12.52856103515625 1.5432905273437498 L 12.68526708984375 1.5432905273437498 L 12.68526708984375 1.7845122070312498 L 12.119188476562499 1.7845122070312498 L 12.119188476562499 1.5432905273437498 L 12.27853564453125 1.5432905273437498 L 12.347204589843749 1.369857421875 L 12.06196435546875 0.6990146484374999 L 11.969525390625 0.6990146484374999 L 11.969525390625 0.45779296875 M 13.0418173828125 0 L 13.439745117187499 0 L 13.439745117187499 0.47804150390625 Q 13.48728515625 0.4551518554687499 13.53746630859375 0.44282666015624994 Q 13.5876474609375 0.43050146484374996 13.6404697265625 0.43050146484374996 Q 13.74171240234375 0.43050146484374996 13.827988769531249 0.46835742187499996 Q 13.91426513671875 0.50621337890625 13.976771484375 0.57136083984375 Q 14.03927783203125 0.63650830078125 14.074932861328126 0.7236650390624999 Q 14.110587890625 0.8108217773437499 14.110587890625 0.90854296875 Q 14.110587890625 1.0071445312499998 14.075813232421876 1.09430126953125 Q 14.04103857421875 1.1814580078124999 13.9785322265625 1.246165283203125 Q 13.91602587890625 1.31087255859375 13.82974951171875 1.348288330078125 Q 13.743473144531249 1.3857041015625 13.6404697265625 1.3857041015625 Q 13.58500634765625 1.3857041015625 13.5348251953125 1.3751396484375 Q 13.48464404296875 1.3645751953124998 13.439745117187499 1.34520703125 L 13.439745117187499 1.369857421875 L 13.16947119140625 1.369857421875 L 13.16947119140625 0.24122167968749997 L 13.0418173828125 0.24122167968749997 L 13.0418173828125 0 M 13.62198193359375 0.6734838867187499 Q 13.56387744140625 0.6734838867187499 13.517657958984374 0.69989501953125 Q 13.4714384765625 0.72630615234375 13.439745117187499 0.77560693359375 L 13.439745117187499 1.0485219726562498 Q 13.467916992187499 1.09077978515625 13.515016845703125 1.1167507324218748 Q 13.56211669921875 1.1427216796875 13.62022119140625 1.1427216796875 Q 13.6651201171875 1.1427216796875 13.7056171875 1.1264348144531249 Q 13.7461142578125 1.1101479492187498 13.776487060546875 1.079775146484375 Q 13.80685986328125 1.04940234375 13.82446728515625 1.0067043457031248 Q 13.84207470703125 0.9640063476562499 13.84207470703125 0.9103037109375 Q 13.84207470703125 0.8557207031249999 13.82446728515625 0.8117021484375 Q 13.80685986328125 0.76768359375 13.77692724609375 0.7368706054687499 Q 13.74699462890625 0.7060576171874999 13.706937744140625 0.689770751953125 Q 13.666880859375 0.6734838867187499 13.62198193359375 0.6734838867187499 M 14.22767724609375 0.9103037109375 Q 14.22767724609375 0.8108217773437499 14.263772460937501 0.7236650390624999 Q 14.29986767578125 0.63650830078125 14.364134765625 0.57136083984375 Q 14.428401855468751 0.50621337890625 14.5173193359375 0.46835742187499996 Q 14.60623681640625 0.43050146484374996 14.71276171875 0.43050146484374996 Q 14.81928662109375 0.43050146484374996 14.908644287109375 0.46835742187499996 Q 14.998001953125 0.50621337890625 15.062269042968751 0.57136083984375 Q 15.1265361328125 0.63650830078125 15.162191162109375 0.7236650390624999 Q 15.19784619140625 0.8108217773437499 15.19784619140625 0.9103037109375 Q 15.19784619140625 1.0097856445312499 15.163071533203125 1.097382568359375 Q 15.128296875 1.1849794921874999 15.064469970703126 1.2505671386718749 Q 15.00064306640625 1.3161547851562498 14.911285400390625 1.3540107421874998 Q 14.821927734375 1.3918666992187498 14.71276171875 1.3918666992187498 Q 14.60271533203125 1.3918666992187498 14.513357666015626 1.3540107421874998 Q 14.424 1.3161547851562498 14.36061328125 1.2510073242187498 Q 14.2972265625 1.1858598632812498 14.262451904296876 1.098262939453125 Q 14.22767724609375 1.010666015625 14.22767724609375 0.9103037109375 M 14.490908203125 0.9103037109375 Q 14.490908203125 0.9622456054687499 14.508515625000001 1.005823974609375 Q 14.526123046875 1.04940234375 14.556495849609375 1.081095703125 Q 14.58686865234375 1.1127890624999999 14.626925537109376 1.1303964843749998 Q 14.666982421875 1.14800390625 14.71276171875 1.14800390625 Q 14.759421386718751 1.14800390625 14.799478271484375 1.1308366699218748 Q 14.839535156250001 1.11366943359375 14.869027587890626 1.0819760742187499 Q 14.89852001953125 1.05028271484375 14.9152470703125 1.0067043457031248 Q 14.93197412109375 0.9631259765625 14.93197412109375 0.9103037109375 Q 14.93197412109375 0.8557207031249999 14.9152470703125 0.8117021484375 Q 14.89852001953125 0.76768359375 14.869027587890626 0.7368706054687499 Q 14.839535156250001 0.7060576171874999 14.799478271484375 0.689770751953125 Q 14.759421386718751 0.6734838867187499 14.71276171875 0.6743642578125 Q 14.666982421875 0.6734838867187499 14.626925537109376 0.689770751953125 Q 14.58686865234375 0.7060576171874999 14.556495849609375 0.7368706054687499 Q 14.526123046875 0.76768359375 14.508515625000001 0.8117021484375 Q 14.490908203125 0.8557207031249999 14.490908203125 0.9103037109375 M 15.8695693359375 0 L 16.26837744140625 0 L 16.26837744140625 1.1286357421875 L 16.44621240234375 1.1286357421875 L 16.44621240234375 1.369857421875 L 15.997223144531251 1.369857421875 L 15.997223144531251 1.334642578125 Q 15.94968310546875 1.35929296875 15.899942138671875 1.37337890625 Q 15.850201171875 1.38746484375 15.799139648437501 1.38746484375 Q 15.694375488281251 1.38746484375 15.606778564453126 1.3500490722656249 Q 15.519181640625 1.3126333007812498 15.456235107421875 1.2474858398437498 Q 15.39328857421875 1.18233837890625 15.358073730468751 1.094741455078125 Q 15.32285888671875 1.0071445312499998 15.32285888671875 0.9067822265625 Q 15.32285888671875 0.8064199218749999 15.357633544921876 0.7197033691406249 Q 15.392408203125001 0.63298681640625 15.454474365234375 0.5687197265624999 Q 15.51654052734375 0.50445263671875 15.603257080078127 0.4674770507812499 Q 15.689973632812501 0.43050146484374996 15.793857421875 0.43050146484374996 Q 15.85108154296875 0.43050146484374996 15.9012626953125 0.4415061035156249 Q 15.95144384765625 0.4525107421875 15.997223144531251 0.47275927734375 L 15.997223144531251 0.24122167968749997 L 15.8695693359375 0.24122167968749997 L 15.8695693359375 0 M 15.81410595703125 1.1444824218749998 Q 15.87221044921875 1.1427216796875 15.919310302734376 1.1145498046875 Q 15.966410156250001 1.0863779296875 15.997223144531251 1.0405986328124999 L 15.997223144531251 0.77208544921875 Q 15.966410156250001 0.7254257812499999 15.917549560546876 0.6994548339843749 Q 15.86868896484375 0.6734838867187499 15.81410595703125 0.6743642578125 Q 15.768326660156252 0.6734838867187499 15.728269775390626 0.6902109375 Q 15.688212890625001 0.70693798828125 15.657840087890625 0.7377509765625 Q 15.62746728515625 0.7685639648437499 15.609859863281251 0.8117021484375 Q 15.59225244140625 0.85484033203125 15.59225244140625 0.9094233398437499 Q 15.59225244140625 0.9631259765625 15.609859863281251 1.0067043457031248 Q 15.62746728515625 1.05028271484375 15.657840087890625 1.080655517578125 Q 15.688212890625001 1.1110283203125 15.728269775390626 1.1268749999999998 Q 15.768326660156252 1.1427216796875 15.81410595703125 1.1444824218749998 M 16.53601025390625 0.45779296875 L 16.98323876953125 0.45779296875 L 16.98323876953125 0.6990146484374999 L 16.912809082031252 0.6990146484374999 L 17.043984375 1.0405986328124999 L 17.17868115234375 0.6990146484374999 L 17.100328125 0.6990146484374999 L 17.100328125 0.45779296875 L 17.547556640625 0.45779296875 L 17.547556640625 0.6990146484374999 L 17.44807470703125 0.6990146484374999 L 17.0950458984375 1.5432905273437498 L 17.251751953125 1.5432905273437498 L 17.251751953125 1.7845122070312498 L 16.685673339843753 1.7845122070312498 L 16.685673339843753 1.5432905273437498 L 16.8450205078125 1.5432905273437498 L 16.913689453125002 1.369857421875 L 16.62844921875 0.6990146484374999 L 16.53601025390625 0.6990146484374999 L 16.53601025390625 0.45779296875" fill="#004a80" fill-rule="nonzero"></path></g><g><path d=" M 0.13824462890625 2.6299809033203125 L 0.1806640625 2.6299809033203125 L 0.1806640625 2.2698734814453125 L 0.0750732421875 2.2698734814453125 L 0.0750732421875 2.3418949658203125 L 0.01251220703125 2.3418949658203125 L 0.01251220703125 2.2198246533203125 L 0.42510986328125 2.2198246533203125 L 0.42510986328125 2.3418949658203125 L 0.362548828125 2.3418949658203125 L 0.362548828125 2.2698734814453125 L 0.240478515625 2.2698734814453125 L 0.240478515625 2.6299809033203125 L 0.2880859375 2.6299809033203125 L 0.2880859375 2.6824711376953125 L 0.13824462890625 2.6824711376953125 L 0.13824462890625 2.6299809033203125 M 0.485076904296875 2.5317143017578125 Q 0.485076904296875 2.5451420361328125 0.487060546875 2.5562809521484375 Q 0.489044189453125 2.5674198681640625 0.492706298828125 2.5774906689453125 Q 0.503997802734375 2.6080082470703125 0.52886962890625 2.6234196240234375 Q 0.553741455078125 2.6388310009765625 0.585174560546875 2.6388310009765625 Q 0.609893798828125 2.6388310009765625 0.63323974609375 2.6319645458984375 Q 0.656585693359375 2.6250980908203125 0.682220458984375 2.6104496533203125 L 0.705108642578125 2.6492069775390625 Q 0.673980712890625 2.6705692822265625 0.642547607421875 2.6809452587890625 Q 0.611114501953125 2.6913212353515625 0.577239990234375 2.6913212353515625 Q 0.545196533203125 2.6913212353515625 0.51788330078125 2.6806400830078125 Q 0.490570068359375 2.6699589306640625 0.47088623046875 2.6489018017578125 Q 0.451202392578125 2.6278446728515625 0.4400634765625 2.5964115673828125 Q 0.428924560546875 2.5649784619140625 0.428924560546875 2.5231693798828125 Q 0.428924560546875 2.4892948681640625 0.438385009765625 2.4592350537109375 Q 0.447845458984375 2.4291752392578125 0.46661376953125 2.4067448193359375 Q 0.485382080078125 2.3843143994140625 0.513153076171875 2.3711918408203125 Q 0.540924072265625 2.3580692822265625 0.577850341796875 2.3580692822265625 Q 0.613555908203125 2.3580692822265625 0.63751220703125 2.3689030224609375 Q 0.661468505859375 2.3797367626953125 0.67657470703125 2.3975895458984375 Q 0.691680908203125 2.4154423291015625 0.699462890625 2.4383305126953125 Q 0.707244873046875 2.4612186962890625 0.710296630859375 2.4850224072265625 Q 0.711822509765625 2.4966190869140625 0.7122802734375 2.5085209423828125 Q 0.712738037109375 2.5204227978515625 0.712738037109375 2.5317143017578125 L 0.485076904296875 2.5317143017578125 M 0.573883056640625 2.4056767041015625 Q 0.554046630859375 2.4056767041015625 0.53924560546875 2.4113224560546875 Q 0.524444580078125 2.4169682080078125 0.514068603515625 2.4274967724609375 Q 0.503692626953125 2.4380253369140625 0.4974365234375 2.4532841259765625 Q 0.491180419921875 2.4685429150390625 0.488128662109375 2.4874638134765625 L 0.652008056640625 2.4874638134765625 Q 0.650787353515625 2.4697636181640625 0.6463623046875 2.4548100048828125 Q 0.641937255859375 2.4398563916015625 0.632781982421875 2.4288700634765625 Q 0.623626708984375 2.4178837353515625 0.609283447265625 2.4117802197265625 Q 0.594940185546875 2.4056767041015625 0.573883056640625 2.4056767041015625 M 0.9814453125 2.4505375439453125 Q 0.9686279296875 2.4276493603515625 0.948944091796875 2.4169682080078125 Q 0.92926025390625 2.4062870556640625 0.9033203125 2.4062870556640625 Q 0.88348388671875 2.4062870556640625 0.8660888671875 2.4145268017578125 Q 0.84869384765625 2.4227665478515625 0.835723876953125 2.4380253369140625 Q 0.82275390625 2.4532841259765625 0.815277099609375 2.4751041943359375 Q 0.80780029296875 2.4969242626953125 0.80780029296875 2.5237797314453125 Q 0.80780029296875 2.5503300244140625 0.815277099609375 2.5716923291015625 Q 0.82275390625 2.5930546337890625 0.83587646484375 2.6081608349609375 Q 0.8489990234375 2.6232670361328125 0.866241455078125 2.6313541943359375 Q 0.88348388671875 2.6394413525390625 0.9033203125 2.6394413525390625 Q 0.9326171875 2.6394413525390625 0.95428466796875 2.6252506787109375 Q 0.9759521484375 2.6110600048828125 0.98876953125 2.5835941845703125 L 1.0357666015625 2.6067875439453125 Q 1.026611328125 2.6263187939453125 1.01318359375 2.6418827587890625 Q 0.999755859375 2.6574467236328125 0.982818603515625 2.6684330517578125 Q 0.96588134765625 2.6794193798828125 0.945587158203125 2.6853703076171875 Q 0.92529296875 2.6913212353515625 0.9027099609375 2.6913212353515625 Q 0.8697509765625 2.6913212353515625 0.841827392578125 2.6789616162109375 Q 0.81390380859375 2.6666019970703125 0.793609619140625 2.6443241650390625 Q 0.7733154296875 2.6220463330078125 0.76202392578125 2.5912235791015625 Q 0.750732421875 2.5604008251953125 0.750732421875 2.5237797314453125 Q 0.750732421875 2.4871586376953125 0.76263427734375 2.4563358837890625 Q 0.7745361328125 2.4255131298828125 0.7952880859375 2.4033878857421875 Q 0.8160400390625 2.3812626416015625 0.84381103515625 2.3687504345703125 Q 0.87158203125 2.3562382275390625 0.9033203125 2.3562382275390625 Q 0.9332275390625 2.3562382275390625 0.959930419921875 2.3666142041015625 Q 0.98663330078125 2.3769901806640625 1.00677490234375 2.3980473095703125 L 1.038818359375 2.3980473095703125 L 1.038818359375 2.4505375439453125 L 0.9814453125 2.4505375439453125 M 1.099395751953125 2.2076176220703125 L 1.199493408203125 2.2076176220703125 L 1.199493408203125 2.4010990673828125 L 1.201324462890625 2.4010990673828125 Q 1.209869384765625 2.3925541455078125 1.22100830078125 2.3850773388671875 Q 1.232147216796875 2.3776005322265625 1.244354248046875 2.3721073681640625 Q 1.256561279296875 2.3666142041015625 1.269683837890625 2.3635624462890625 Q 1.282806396484375 2.3605106884765625 1.297149658203125 2.3605106884765625 Q 1.322479248046875 2.3605106884765625 1.342926025390625 2.3675297314453125 Q 1.363372802734375 2.3745487744140625 1.377716064453125 2.3888920361328125 Q 1.392059326171875 2.4032352978515625 1.39984130859375 2.4256657177734375 Q 1.407623291015625 2.4480961376953125 1.407623291015625 2.4786137158203125 L 1.407623291015625 2.6299809033203125 L 1.455230712890625 2.6299809033203125 L 1.455230712890625 2.6824711376953125 L 1.305084228515625 2.6824711376953125 L 1.305084228515625 2.6299809033203125 L 1.348419189453125 2.6299809033203125 L 1.348419189453125 2.4856327587890625 Q 1.348419189453125 2.4493168408203125 1.3299560546875 2.4305485302734375 Q 1.311492919921875 2.4117802197265625 1.277008056640625 2.4117802197265625 Q 1.257476806640625 2.4117802197265625 1.237335205078125 2.4210880810546875 Q 1.217193603515625 2.4303959423828125 1.199493408203125 2.4444340283203125 L 1.199493408203125 2.6299809033203125 L 1.245269775390625 2.6299809033203125 L 1.245269775390625 2.6824711376953125 L 1.095123291015625 2.6824711376953125 L 1.095123291015625 2.6299809033203125 L 1.142730712890625 2.6299809033203125 L 1.142730712890625 2.2601078564453125 L 1.099395751953125 2.2601078564453125 L 1.099395751953125 2.2076176220703125 M 1.754302978515625 2.6299809033203125 L 1.796722412109375 2.6299809033203125 L 1.796722412109375 2.2698734814453125 L 1.691131591796875 2.2698734814453125 L 1.691131591796875 2.3418949658203125 L 1.628570556640625 2.3418949658203125 L 1.628570556640625 2.2198246533203125 L 2.041168212890625 2.2198246533203125 L 2.041168212890625 2.3418949658203125 L 1.978607177734375 2.3418949658203125 L 1.978607177734375 2.2698734814453125 L 1.856536865234375 2.2698734814453125 L 1.856536865234375 2.6299809033203125 L 1.904144287109375 2.6299809033203125 L 1.904144287109375 2.6824711376953125 L 1.754302978515625 2.6824711376953125 L 1.754302978515625 2.6299809033203125 M 2.0892333984375 2.2076176220703125 L 2.1893310546875 2.2076176220703125 L 2.1893310546875 2.4010990673828125 L 2.191162109375 2.4010990673828125 Q 2.19970703125 2.3925541455078125 2.210845947265625 2.3850773388671875 Q 2.22198486328125 2.3776005322265625 2.23419189453125 2.3721073681640625 Q 2.24639892578125 2.3666142041015625 2.259521484375 2.3635624462890625 Q 2.27264404296875 2.3605106884765625 2.2869873046875 2.3605106884765625 Q 2.31231689453125 2.3605106884765625 2.332763671875 2.3675297314453125 Q 2.35321044921875 2.3745487744140625 2.3675537109375 2.3888920361328125 Q 2.38189697265625 2.4032352978515625 2.389678955078125 2.4256657177734375 Q 2.3974609375 2.4480961376953125 2.3974609375 2.4786137158203125 L 2.3974609375 2.6299809033203125 L 2.445068359375 2.6299809033203125 L 2.445068359375 2.6824711376953125 L 2.294921875 2.6824711376953125 L 2.294921875 2.6299809033203125 L 2.3382568359375 2.6299809033203125 L 2.3382568359375 2.4856327587890625 Q 2.3382568359375 2.4493168408203125 2.319793701171875 2.4305485302734375 Q 2.30133056640625 2.4117802197265625 2.266845703125 2.4117802197265625 Q 2.247314453125 2.4117802197265625 2.2271728515625 2.4210880810546875 Q 2.20703125 2.4303959423828125 2.1893310546875 2.4444340283203125 L 2.1893310546875 2.6299809033203125 L 2.235107421875 2.6299809033203125 L 2.235107421875 2.6824711376953125 L 2.0849609375 2.6824711376953125 L 2.0849609375 2.6299809033203125 L 2.132568359375 2.6299809033203125 L 2.132568359375 2.2601078564453125 L 2.0892333984375 2.2601078564453125 L 2.0892333984375 2.2076176220703125 M 2.684783935546875 2.6531742626953125 Q 2.666778564453125 2.6699589306640625 2.64495849609375 2.6806400830078125 Q 2.623138427734375 2.6913212353515625 2.595367431640625 2.6913212353515625 Q 2.572174072265625 2.6913212353515625 2.55279541015625 2.6839970166015625 Q 2.533416748046875 2.6766727978515625 2.519378662109375 2.6640080029296875 Q 2.505340576171875 2.6513432080078125 2.49755859375 2.6345585400390625 Q 2.489776611328125 2.6177738720703125 2.489776611328125 2.5988529736328125 Q 2.489776611328125 2.5787113720703125 2.4957275390625 2.5631474072265625 Q 2.501678466796875 2.5475834423828125 2.5115966796875 2.5361393505859375 Q 2.521514892578125 2.5246952587890625 2.5347900390625 2.5169132763671875 Q 2.548065185546875 2.5091312939453125 2.56256103515625 2.5044010693359375 Q 2.577056884765625 2.4996708447265625 2.5921630859375 2.4976872021484375 Q 2.607269287109375 2.4957035595703125 2.621002197265625 2.4957035595703125 Q 2.642974853515625 2.4957035595703125 2.657928466796875 2.4970768505859375 Q 2.672882080078125 2.4984501416015625 2.685089111328125 2.5008915478515625 L 2.685394287109375 2.4749516064453125 Q 2.685394287109375 2.4581669384765625 2.680511474609375 2.4458073193359375 Q 2.675628662109375 2.4334477001953125 2.666778564453125 2.4253605419921875 Q 2.657928466796875 2.4172733837890625 2.64556884765625 2.4133060986328125 Q 2.633209228515625 2.4093388134765625 2.617950439453125 2.4093388134765625 Q 2.603607177734375 2.4093388134765625 2.590484619140625 2.4113224560546875 Q 2.577362060546875 2.4133060986328125 2.56591796875 2.4165104443359375 Q 2.554473876953125 2.4197147900390625 2.54486083984375 2.4238346630859375 Q 2.535247802734375 2.4279545361328125 2.528533935546875 2.4325321728515625 L 2.509918212890625 2.3931644970703125 Q 2.521209716796875 2.3858402783203125 2.534637451171875 2.3795841748046875 Q 2.548065185546875 2.3733280712890625 2.5628662109375 2.3689030224609375 Q 2.577667236328125 2.3644779736328125 2.59307861328125 2.3618839794921875 Q 2.608489990234375 2.3592899853515625 2.623443603515625 2.3592899853515625 Q 2.650909423828125 2.3592899853515625 2.672882080078125 2.3658512646484375 Q 2.694854736328125 2.3724125439453125 2.710113525390625 2.3861454541015625 Q 2.725372314453125 2.3998783642578125 2.733612060546875 2.4210880810546875 Q 2.741851806640625 2.4422977978515625 2.741851806640625 2.4718998486328125 L 2.741546630859375 2.6299809033203125 L 2.776641845703125 2.6299809033203125 L 2.776641845703125 2.6824711376953125 L 2.684783935546875 2.6824711376953125 L 2.684783935546875 2.6531742626953125 M 2.607879638671875 2.6437138134765625 Q 2.619171142578125 2.6437138134765625 2.630462646484375 2.6409672314453125 Q 2.641754150390625 2.6382206494140625 2.651824951171875 2.6334904248046875 Q 2.661895751953125 2.6287602001953125 2.670440673828125 2.6225040966796875 Q 2.678985595703125 2.6162479931640625 2.684783935546875 2.6095341259765625 L 2.685089111328125 2.5381229931640625 L 2.619171142578125 2.5381229931640625 Q 2.602691650390625 2.5381229931640625 2.589111328125 2.5417851025390625 Q 2.575531005859375 2.5454472119140625 2.56561279296875 2.5524662548828125 Q 2.555694580078125 2.5594852978515625 2.550201416015625 2.5698612744140625 Q 2.544708251953125 2.5802372509765625 2.544708251953125 2.5936649853515625 Q 2.544708251953125 2.6061771923828125 2.549285888671875 2.6154850537109375 Q 2.553863525390625 2.6247929150390625 2.562255859375 2.6310490185546875 Q 2.570648193359375 2.6373051220703125 2.582244873046875 2.6405094677734375 Q 2.593841552734375 2.6437138134765625 2.607879638671875 2.6437138134765625 M 2.93304443359375 2.3663090283203125 L 3.0072021484375 2.3663090283203125 L 3.0072021484375 2.4123905712890625 L 2.93243408203125 2.4123905712890625 L 2.9315185546875 2.5948856884765625 Q 2.9315185546875 2.6135014111328125 2.935791015625 2.6250980908203125 Q 2.9400634765625 2.6366947705078125 2.94952392578125 2.6411198193359375 Q 2.958984375 2.6455448681640625 2.97088623046875 2.6455448681640625 Q 2.98370361328125 2.6455448681640625 2.99346923828125 2.6432560498046875 Q 3.00323486328125 2.6409672314453125 3.01483154296875 2.6354740673828125 L 3.0279541015625 2.6736210400390625 Q 3.0133056640625 2.6812504345703125 2.99713134765625 2.6856754833984375 Q 2.98095703125 2.6901005322265625 2.958984375 2.6901005322265625 Q 2.938232421875 2.6901005322265625 2.922821044921875 2.6850651318359375 Q 2.90740966796875 2.6800297314453125 2.896881103515625 2.6681278759765625 Q 2.8863525390625 2.6562260205078125 2.88116455078125 2.6362370068359375 Q 2.8759765625 2.6162479931640625 2.8759765625 2.5863407666015625 L 2.87689208984375 2.4123905712890625 L 2.8265380859375 2.4123905712890625 L 2.8265380859375 2.3663090283203125 L 2.87750244140625 2.3663090283203125 L 2.87750244140625 2.2906254345703125 L 2.93304443359375 2.2643803173828125 L 2.93304443359375 2.3663090283203125 M 3.22540283203125 2.6299809033203125 L 3.26934814453125 2.6299809033203125 L 3.26934814453125 2.2781132275390625 L 3.22540283203125 2.2781132275390625 L 3.22540283203125 2.2198246533203125 L 3.37188720703125 2.2198246533203125 L 3.5186767578125 2.6192997509765625 L 3.66729736328125 2.2198246533203125 L 3.80615234375 2.2198246533203125 L 3.80615234375 2.2781132275390625 L 3.76251220703125 2.2781132275390625 L 3.76251220703125 2.6299809033203125 L 3.80615234375 2.6299809033203125 L 3.80615234375 2.6824711376953125 L 3.656005859375 2.6824711376953125 L 3.656005859375 2.6299809033203125 L 3.7054443359375 2.6299809033203125 L 3.7054443359375 2.2747562939453125 L 3.543701171875 2.6824711376953125 L 3.4918212890625 2.6824711376953125 L 3.32794189453125 2.2738407666015625 L 3.32794189453125 2.6299809033203125 L 3.37554931640625 2.6299809033203125 L 3.37554931640625 2.6824711376953125 L 3.22540283203125 2.6824711376953125 L 3.22540283203125 2.6299809033203125 M 4.066925048828125 2.6531742626953125 Q 4.048919677734375 2.6699589306640625 4.027099609375 2.6806400830078125 Q 4.005279541015625 2.6913212353515625 3.977508544921875 2.6913212353515625 Q 3.954315185546875 2.6913212353515625 3.9349365234375 2.6839970166015625 Q 3.915557861328125 2.6766727978515625 3.901519775390625 2.6640080029296875 Q 3.887481689453125 2.6513432080078125 3.87969970703125 2.6345585400390625 Q 3.871917724609375 2.6177738720703125 3.871917724609375 2.5988529736328125 Q 3.871917724609375 2.5787113720703125 3.87786865234375 2.5631474072265625 Q 3.883819580078125 2.5475834423828125 3.89373779296875 2.5361393505859375 Q 3.903656005859375 2.5246952587890625 3.91693115234375 2.5169132763671875 Q 3.930206298828125 2.5091312939453125 3.9447021484375 2.5044010693359375 Q 3.959197998046875 2.4996708447265625 3.97430419921875 2.4976872021484375 Q 3.989410400390625 2.4957035595703125 4.003143310546875 2.4957035595703125 Q 4.025115966796875 2.4957035595703125 4.040069580078125 2.4970768505859375 Q 4.055023193359375 2.4984501416015625 4.067230224609375 2.5008915478515625 L 4.067535400390625 2.4749516064453125 Q 4.067535400390625 2.4581669384765625 4.062652587890625 2.4458073193359375 Q 4.057769775390625 2.4334477001953125 4.048919677734375 2.4253605419921875 Q 4.040069580078125 2.4172733837890625 4.0277099609375 2.4133060986328125 Q 4.015350341796875 2.4093388134765625 4.000091552734375 2.4093388134765625 Q 3.985748291015625 2.4093388134765625 3.972625732421875 2.4113224560546875 Q 3.959503173828125 2.4133060986328125 3.94805908203125 2.4165104443359375 Q 3.936614990234375 2.4197147900390625 3.927001953125 2.4238346630859375 Q 3.917388916015625 2.4279545361328125 3.910675048828125 2.4325321728515625 L 3.892059326171875 2.3931644970703125 Q 3.903350830078125 2.3858402783203125 3.916778564453125 2.3795841748046875 Q 3.930206298828125 2.3733280712890625 3.94500732421875 2.3689030224609375 Q 3.959808349609375 2.3644779736328125 3.9752197265625 2.3618839794921875 Q 3.990631103515625 2.3592899853515625 4.005584716796875 2.3592899853515625 Q 4.033050537109375 2.3592899853515625 4.055023193359375 2.3658512646484375 Q 4.076995849609375 2.3724125439453125 4.092254638671875 2.3861454541015625 Q 4.107513427734375 2.3998783642578125 4.115753173828125 2.4210880810546875 Q 4.123992919921875 2.4422977978515625 4.123992919921875 2.4718998486328125 L 4.123687744140625 2.6299809033203125 L 4.158782958984375 2.6299809033203125 L 4.158782958984375 2.6824711376953125 L 4.066925048828125 2.6824711376953125 L 4.066925048828125 2.6531742626953125 M 3.990020751953125 2.6437138134765625 Q 4.001312255859375 2.6437138134765625 4.012603759765625 2.6409672314453125 Q 4.023895263671875 2.6382206494140625 4.033966064453125 2.6334904248046875 Q 4.044036865234375 2.6287602001953125 4.052581787109375 2.6225040966796875 Q 4.061126708984375 2.6162479931640625 4.066925048828125 2.6095341259765625 L 4.067230224609375 2.5381229931640625 L 4.001312255859375 2.5381229931640625 Q 3.984832763671875 2.5381229931640625 3.97125244140625 2.5417851025390625 Q 3.957672119140625 2.5454472119140625 3.94775390625 2.5524662548828125 Q 3.937835693359375 2.5594852978515625 3.932342529296875 2.5698612744140625 Q 3.926849365234375 2.5802372509765625 3.926849365234375 2.5936649853515625 Q 3.926849365234375 2.6061771923828125 3.931427001953125 2.6154850537109375 Q 3.936004638671875 2.6247929150390625 3.94439697265625 2.6310490185546875 Q 3.952789306640625 2.6373051220703125 3.964385986328125 2.6405094677734375 Q 3.975982666015625 2.6437138134765625 3.990020751953125 2.6437138134765625 M 4.22119140625 2.2076176220703125 L 4.33258056640625 2.2076176220703125 L 4.33258056640625 2.2601078564453125 L 4.33197021484375 2.2601078564453125 L 4.33197021484375 2.4963139111328125 L 4.38690185546875 2.4963139111328125 L 4.46197509765625 2.4187992626953125 L 4.44305419921875 2.4187992626953125 L 4.44305419921875 2.3663090283203125 L 4.56298828125 2.3663090283203125 L 4.56298828125 2.4187992626953125 L 4.52301025390625 2.4187992626953125 L 4.4268798828125 2.5179813916015625 L 4.5318603515625 2.6299809033203125 L 4.57000732421875 2.6299809033203125 L 4.57000732421875 2.6824711376953125 L 4.503173828125 2.6824711376953125 L 4.373779296875 2.5411747509765625 L 4.33197021484375 2.5411747509765625 L 4.33197021484375 2.6299809033203125 L 4.35821533203125 2.6299809033203125 L 4.35821533203125 2.6824711376953125 L 4.2230224609375 2.6824711376953125 L 4.2230224609375 2.6299809033203125 L 4.27490234375 2.6299809033203125 L 4.27490234375 2.2601078564453125 L 4.22119140625 2.2601078564453125 L 4.22119140625 2.2076176220703125 M 4.670562744140625 2.5317143017578125 Q 4.670562744140625 2.5451420361328125 4.67254638671875 2.5562809521484375 Q 4.674530029296875 2.5674198681640625 4.678192138671875 2.5774906689453125 Q 4.689483642578125 2.6080082470703125 4.71435546875 2.6234196240234375 Q 4.739227294921875 2.6388310009765625 4.770660400390625 2.6388310009765625 Q 4.795379638671875 2.6388310009765625 4.8187255859375 2.6319645458984375 Q 4.842071533203125 2.6250980908203125 4.867706298828125 2.6104496533203125 L 4.890594482421875 2.6492069775390625 Q 4.859466552734375 2.6705692822265625 4.828033447265625 2.6809452587890625 Q 4.796600341796875 2.6913212353515625 4.762725830078125 2.6913212353515625 Q 4.730682373046875 2.6913212353515625 4.703369140625 2.6806400830078125 Q 4.676055908203125 2.6699589306640625 4.6563720703125 2.6489018017578125 Q 4.636688232421875 2.6278446728515625 4.62554931640625 2.5964115673828125 Q 4.614410400390625 2.5649784619140625 4.614410400390625 2.5231693798828125 Q 4.614410400390625 2.4892948681640625 4.623870849609375 2.4592350537109375 Q 4.633331298828125 2.4291752392578125 4.652099609375 2.4067448193359375 Q 4.670867919921875 2.3843143994140625 4.698638916015625 2.3711918408203125 Q 4.726409912109375 2.3580692822265625 4.763336181640625 2.3580692822265625 Q 4.799041748046875 2.3580692822265625 4.822998046875 2.3689030224609375 Q 4.846954345703125 2.3797367626953125 4.862060546875 2.3975895458984375 Q 4.877166748046875 2.4154423291015625 4.88494873046875 2.4383305126953125 Q 4.892730712890625 2.4612186962890625 4.895782470703125 2.4850224072265625 Q 4.897308349609375 2.4966190869140625 4.89776611328125 2.5085209423828125 Q 4.898223876953125 2.5204227978515625 4.898223876953125 2.5317143017578125 L 4.670562744140625 2.5317143017578125 M 4.759368896484375 2.4056767041015625 Q 4.739532470703125 2.4056767041015625 4.7247314453125 2.4113224560546875 Q 4.709930419921875 2.4169682080078125 4.699554443359375 2.4274967724609375 Q 4.689178466796875 2.4380253369140625 4.68292236328125 2.4532841259765625 Q 4.676666259765625 2.4685429150390625 4.673614501953125 2.4874638134765625 L 4.837493896484375 2.4874638134765625 Q 4.836273193359375 2.4697636181640625 4.83184814453125 2.4548100048828125 Q 4.827423095703125 2.4398563916015625 4.818267822265625 2.4288700634765625 Q 4.809112548828125 2.4178837353515625 4.794769287109375 2.4117802197265625 Q 4.780426025390625 2.4056767041015625 4.759368896484375 2.4056767041015625 M 5.152740478515625 2.4293278271484375 Q 5.14678955078125 2.4203251416015625 5.1373291015625 2.4146793896484375 Q 5.12786865234375 2.4090336376953125 5.11627197265625 2.4064396435546875 Q 5.10467529296875 2.4038456494140625 5.09368896484375 2.4038456494140625 Q 5.08148193359375 2.4038456494140625 5.071258544921875 2.4065922314453125 Q 5.06103515625 2.4093388134765625 5.0537109375 2.4145268017578125 Q 5.04638671875 2.4197147900390625 5.042266845703125 2.4271915966796875 Q 5.03814697265625 2.4346684033203125 5.03814697265625 2.4438236767578125 Q 5.03814697265625 2.4596928173828125 5.047760009765625 2.4690006787109375 Q 5.057373046875 2.4783085400390625 5.0799560546875 2.4862431103515625 L 5.14068603515625 2.5076054150390625 Q 5.17974853515625 2.5207279736328125 5.19775390625 2.5433109814453125 Q 5.21575927734375 2.5658939892578125 5.21575927734375 2.5973270947265625 Q 5.21575927734375 2.6183842236328125 5.207366943359375 2.6359318310546875 Q 5.198974609375 2.6534794384765625 5.183563232421875 2.6658390576171875 Q 5.16815185546875 2.6781986767578125 5.146484375 2.6850651318359375 Q 5.12481689453125 2.6919315869140625 5.0982666015625 2.6919315869140625 Q 5.06134033203125 2.6919315869140625 5.03814697265625 2.6800297314453125 Q 5.01495361328125 2.6681278759765625 5.00244140625 2.6485966259765625 L 4.970703125 2.6485966259765625 L 4.970703125 2.5961063916015625 L 5.03387451171875 2.5961063916015625 Q 5.03387451171875 2.6092289501953125 5.039520263671875 2.6185368115234375 Q 5.045166015625 2.6278446728515625 5.054473876953125 2.6336430126953125 Q 5.06378173828125 2.6394413525390625 5.075531005859375 2.6421879345703125 Q 5.0872802734375 2.6449345166015625 5.0994873046875 2.6449345166015625 Q 5.11138916015625 2.6449345166015625 5.12237548828125 2.6420353466796875 Q 5.13336181640625 2.6391361767578125 5.141754150390625 2.6334904248046875 Q 5.150146484375 2.6278446728515625 5.155029296875 2.6199101025390625 Q 5.159912109375 2.6119755322265625 5.159912109375 2.6019047314453125 Q 5.159912109375 2.5866459423828125 5.149993896484375 2.5759647900390625 Q 5.14007568359375 2.5652836376953125 5.11627197265625 2.5567387158203125 L 5.05584716796875 2.5341557080078125 Q 5.0189208984375 2.5210331494140625 5.001068115234375 2.5007389599609375 Q 4.98321533203125 2.4804447705078125 4.98321533203125 2.4499271923828125 Q 4.98321533203125 2.4297855908203125 4.990692138671875 2.4126957470703125 Q 4.9981689453125 2.3956059033203125 5.012359619140625 2.3832462841796875 Q 5.02655029296875 2.3708866650390625 5.0469970703125 2.3638676220703125 Q 5.06744384765625 2.3568485791015625 5.09368896484375 2.3568485791015625 Q 5.1275634765625 2.3568485791015625 5.15045166015625 2.3663090283203125 Q 5.17333984375 2.3757694775390625 5.191650390625 2.3986576611328125 L 5.22125244140625 2.3986576611328125 L 5.22125244140625 2.4511478955078125 L 5.15869140625 2.4511478955078125 Q 5.15869140625 2.4383305126953125 5.152740478515625 2.4293278271484375 M 5.657958984375 2.3052738720703125 Q 5.648193359375 2.2918461376953125 5.636444091796875 2.2846745068359375 Q 5.62469482421875 2.2775028759765625 5.61065673828125 2.2736881787109375 Q 5.59661865234375 2.2698734814453125 5.58258056640625 2.2698734814453125 Q 5.55938720703125 2.2698734814453125 5.5419921875 2.2752140576171875 Q 5.52459716796875 2.2805546337890625 5.513153076171875 2.2897099072265625 Q 5.501708984375 2.2988651806640625 5.49591064453125 2.3110722119140625 Q 5.4901123046875 2.3232792431640625 5.4901123046875 2.3367069775390625 Q 5.4901123046875 2.3568485791015625 5.497283935546875 2.3692081982421875 Q 5.50445556640625 2.3815678173828125 5.51544189453125 2.3890446240234375 Q 5.52642822265625 2.3965214306640625 5.539703369140625 2.4007938916015625 Q 5.552978515625 2.4050663525390625 5.565185546875 2.4093388134765625 L 5.6268310546875 2.4294804150390625 Q 5.65460205078125 2.4383305126953125 5.675811767578125 2.4496220166015625 Q 5.697021484375 2.4609135205078125 5.71136474609375 2.4763248974609375 Q 5.7257080078125 2.4917362744140625 5.733184814453125 2.5118778759765625 Q 5.74066162109375 2.5320194775390625 5.74066162109375 2.5585697705078125 Q 5.74066162109375 2.5872562939453125 5.728912353515625 2.6116703564453125 Q 5.7171630859375 2.6360844189453125 5.69610595703125 2.6540897900390625 Q 5.675048828125 2.6720951611328125 5.645904541015625 2.6823185498046875 Q 5.61676025390625 2.6925419384765625 5.58197021484375 2.6925419384765625 Q 5.5462646484375 2.6925419384765625 5.52093505859375 2.6844547802734375 Q 5.49560546875 2.6763676220703125 5.478363037109375 2.6627872998046875 Q 5.46112060546875 2.6492069775390625 5.45074462890625 2.6318119580078125 Q 5.44036865234375 2.6144169384765625 5.4345703125 2.5961063916015625 L 5.411376953125 2.5961063916015625 L 5.411376953125 2.5436161572265625 L 5.48828125 2.5436161572265625 Q 5.48828125 2.5774906689453125 5.495452880859375 2.5915287548828125 Q 5.50262451171875 2.6055668408203125 5.51544189453125 2.6148747021484375 Q 5.52825927734375 2.6241825634765625 5.54595947265625 2.6289127880859375 Q 5.56365966796875 2.6336430126953125 5.58502197265625 2.6336430126953125 Q 5.60577392578125 2.6336430126953125 5.622406005859375 2.6287602001953125 Q 5.6390380859375 2.6238773876953125 5.650787353515625 2.6145695263671875 Q 5.66253662109375 2.6052616650390625 5.668792724609375 2.5919865185546875 Q 5.675048828125 2.5787113720703125 5.675048828125 2.5619267041015625 Q 5.675048828125 2.5433109814453125 5.667266845703125 2.5303410107421875 Q 5.65948486328125 2.5173710400390625 5.64727783203125 2.5082157666015625 Q 5.63507080078125 2.4990604931640625 5.620574951171875 2.4932621533203125 Q 5.6060791015625 2.4874638134765625 5.5926513671875 2.4831913525390625 L 5.52581787109375 2.4642704541015625 Q 5.50384521484375 2.4575565869140625 5.485687255859375 2.4471806103515625 Q 5.467529296875 2.4368046337890625 5.454559326171875 2.4218510205078125 Q 5.44158935546875 2.4068974072265625 5.4345703125 2.3869083935546875 Q 5.42755126953125 2.3669193798828125 5.42755126953125 2.3406742626953125 Q 5.42755126953125 2.3141239697265625 5.43792724609375 2.2909306103515625 Q 5.44830322265625 2.2677372509765625 5.46844482421875 2.2503422314453125 Q 5.48858642578125 2.2329472119140625 5.517730712890625 2.2230289990234375 Q 5.546875 2.2131107861328125 5.58441162109375 2.2131107861328125 Q 5.609130859375 2.2131107861328125 5.630035400390625 2.2189091259765625 Q 5.65093994140625 2.2247074658203125 5.667877197265625 2.2352360302734375 Q 5.684814453125 2.2457645947265625 5.697784423828125 2.2605656201171875 Q 5.71075439453125 2.2753666455078125 5.7196044921875 2.2930668408203125 L 5.74249267578125 2.2930668408203125 L 5.74249267578125 2.3455570751953125 L 5.667724609375 2.3455570751953125 Q 5.667724609375 2.3187016064453125 5.657958984375 2.3052738720703125 M 5.841217041015625 2.5317143017578125 Q 5.841217041015625 2.5451420361328125 5.84320068359375 2.5562809521484375 Q 5.845184326171875 2.5674198681640625 5.848846435546875 2.5774906689453125 Q 5.860137939453125 2.6080082470703125 5.885009765625 2.6234196240234375 Q 5.909881591796875 2.6388310009765625 5.941314697265625 2.6388310009765625 Q 5.966033935546875 2.6388310009765625 5.9893798828125 2.6319645458984375 Q 6.012725830078125 2.6250980908203125 6.038360595703125 2.6104496533203125 L 6.061248779296875 2.6492069775390625 Q 6.030120849609375 2.6705692822265625 5.998687744140625 2.6809452587890625 Q 5.967254638671875 2.6913212353515625 5.933380126953125 2.6913212353515625 Q 5.901336669921875 2.6913212353515625 5.8740234375 2.6806400830078125 Q 5.846710205078125 2.6699589306640625 5.8270263671875 2.6489018017578125 Q 5.807342529296875 2.6278446728515625 5.79620361328125 2.5964115673828125 Q 5.785064697265625 2.5649784619140625 5.785064697265625 2.5231693798828125 Q 5.785064697265625 2.4892948681640625 5.794525146484375 2.4592350537109375 Q 5.803985595703125 2.4291752392578125 5.82275390625 2.4067448193359375 Q 5.841522216796875 2.3843143994140625 5.869293212890625 2.3711918408203125 Q 5.897064208984375 2.3580692822265625 5.933990478515625 2.3580692822265625 Q 5.969696044921875 2.3580692822265625 5.99365234375 2.3689030224609375 Q 6.017608642578125 2.3797367626953125 6.03271484375 2.3975895458984375 Q 6.047821044921875 2.4154423291015625 6.05560302734375 2.4383305126953125 Q 6.063385009765625 2.4612186962890625 6.066436767578125 2.4850224072265625 Q 6.067962646484375 2.4966190869140625 6.06842041015625 2.5085209423828125 Q 6.068878173828125 2.5204227978515625 6.068878173828125 2.5317143017578125 L 5.841217041015625 2.5317143017578125 M 5.930023193359375 2.4056767041015625 Q 5.910186767578125 2.4056767041015625 5.8953857421875 2.4113224560546875 Q 5.880584716796875 2.4169682080078125 5.870208740234375 2.4274967724609375 Q 5.859832763671875 2.4380253369140625 5.85357666015625 2.4532841259765625 Q 5.847320556640625 2.4685429150390625 5.844268798828125 2.4874638134765625 L 6.008148193359375 2.4874638134765625 Q 6.006927490234375 2.4697636181640625 6.00250244140625 2.4548100048828125 Q 5.998077392578125 2.4398563916015625 5.988922119140625 2.4288700634765625 Q 5.979766845703125 2.4178837353515625 5.965423583984375 2.4117802197265625 Q 5.951080322265625 2.4056767041015625 5.930023193359375 2.4056767041015625 M 6.35498046875 2.6299809033203125 L 6.3995361328125 2.6299809033203125 L 6.3995361328125 2.4856327587890625 Q 6.3995361328125 2.4493168408203125 6.381072998046875 2.4305485302734375 Q 6.36260986328125 2.4117802197265625 6.328125 2.4117802197265625 Q 6.30828857421875 2.4117802197265625 6.28814697265625 2.4212406689453125 Q 6.26800537109375 2.4307011181640625 6.25 2.4447392041015625 L 6.25 2.6299809033203125 L 6.2945556640625 2.6299809033203125 L 6.2945556640625 2.6824711376953125 L 6.1468505859375 2.6824711376953125 L 6.1468505859375 2.6299809033203125 L 6.1907958984375 2.6299809033203125 L 6.1907958984375 2.4187992626953125 L 6.1468505859375 2.4187992626953125 L 6.1468505859375 2.3663090283203125 L 6.24755859375 2.3663090283203125 L 6.24755859375 2.4035404736328125 L 6.2481689453125 2.4035404736328125 Q 6.25823974609375 2.3946903759765625 6.269683837890625 2.3867558056640625 Q 6.2811279296875 2.3788212353515625 6.29364013671875 2.3730228955078125 Q 6.30615234375 2.3672245556640625 6.319732666015625 2.3638676220703125 Q 6.33331298828125 2.3605106884765625 6.3482666015625 2.3605106884765625 Q 6.37359619140625 2.3605106884765625 6.39404296875 2.3675297314453125 Q 6.41448974609375 2.3745487744140625 6.4288330078125 2.3888920361328125 Q 6.44317626953125 2.4032352978515625 6.450958251953125 2.4256657177734375 Q 6.458740234375 2.4480961376953125 6.458740234375 2.4786137158203125 L 6.458740234375 2.6299809033203125 L 6.502685546875 2.6299809033203125 L 6.502685546875 2.6824711376953125 L 6.35498046875 2.6824711376953125 L 6.35498046875 2.6299809033203125 M 6.74102783203125 2.4293278271484375 Q 6.735076904296875 2.4203251416015625 6.725616455078125 2.4146793896484375 Q 6.716156005859375 2.4090336376953125 6.704559326171875 2.4064396435546875 Q 6.692962646484375 2.4038456494140625 6.681976318359375 2.4038456494140625 Q 6.669769287109375 2.4038456494140625 6.6595458984375 2.4065922314453125 Q 6.649322509765625 2.4093388134765625 6.641998291015625 2.4145268017578125 Q 6.634674072265625 2.4197147900390625 6.63055419921875 2.4271915966796875 Q 6.626434326171875 2.4346684033203125 6.626434326171875 2.4438236767578125 Q 6.626434326171875 2.4596928173828125 6.63604736328125 2.4690006787109375 Q 6.645660400390625 2.4783085400390625 6.668243408203125 2.4862431103515625 L 6.728973388671875 2.5076054150390625 Q 6.768035888671875 2.5207279736328125 6.786041259765625 2.5433109814453125 Q 6.804046630859375 2.5658939892578125 6.804046630859375 2.5973270947265625 Q 6.804046630859375 2.6183842236328125 6.795654296875 2.6359318310546875 Q 6.787261962890625 2.6534794384765625 6.7718505859375 2.6658390576171875 Q 6.756439208984375 2.6781986767578125 6.734771728515625 2.6850651318359375 Q 6.713104248046875 2.6919315869140625 6.686553955078125 2.6919315869140625 Q 6.649627685546875 2.6919315869140625 6.626434326171875 2.6800297314453125 Q 6.603240966796875 2.6681278759765625 6.590728759765625 2.6485966259765625 L 6.558990478515625 2.6485966259765625 L 6.558990478515625 2.5961063916015625 L 6.622161865234375 2.5961063916015625 Q 6.622161865234375 2.6092289501953125 6.6278076171875 2.6185368115234375 Q 6.633453369140625 2.6278446728515625 6.64276123046875 2.6336430126953125 Q 6.652069091796875 2.6394413525390625 6.663818359375 2.6421879345703125 Q 6.675567626953125 2.6449345166015625 6.687774658203125 2.6449345166015625 Q 6.699676513671875 2.6449345166015625 6.710662841796875 2.6420353466796875 Q 6.721649169921875 2.6391361767578125 6.73004150390625 2.6334904248046875 Q 6.738433837890625 2.6278446728515625 6.743316650390625 2.6199101025390625 Q 6.748199462890625 2.6119755322265625 6.748199462890625 2.6019047314453125 Q 6.748199462890625 2.5866459423828125 6.73828125 2.5759647900390625 Q 6.728363037109375 2.5652836376953125 6.704559326171875 2.5567387158203125 L 6.644134521484375 2.5341557080078125 Q 6.607208251953125 2.5210331494140625 6.58935546875 2.5007389599609375 Q 6.571502685546875 2.4804447705078125 6.571502685546875 2.4499271923828125 Q 6.571502685546875 2.4297855908203125 6.5789794921875 2.4126957470703125 Q 6.586456298828125 2.3956059033203125 6.60064697265625 2.3832462841796875 Q 6.614837646484375 2.3708866650390625 6.635284423828125 2.3638676220703125 Q 6.655731201171875 2.3568485791015625 6.681976318359375 2.3568485791015625 Q 6.715850830078125 2.3568485791015625 6.738739013671875 2.3663090283203125 Q 6.761627197265625 2.3757694775390625 6.779937744140625 2.3986576611328125 L 6.809539794921875 2.3986576611328125 L 6.809539794921875 2.4511478955078125 L 6.746978759765625 2.4511478955078125 Q 6.746978759765625 2.4383305126953125 6.74102783203125 2.4293278271484375 M 6.9219970703125 2.5317143017578125 Q 6.9219970703125 2.5451420361328125 6.923980712890625 2.5562809521484375 Q 6.92596435546875 2.5674198681640625 6.92962646484375 2.5774906689453125 Q 6.94091796875 2.6080082470703125 6.965789794921875 2.6234196240234375 Q 6.99066162109375 2.6388310009765625 7.0220947265625 2.6388310009765625 Q 7.04681396484375 2.6388310009765625 7.070159912109375 2.6319645458984375 Q 7.093505859375 2.6250980908203125 7.119140625 2.6104496533203125 L 7.14202880859375 2.6492069775390625 Q 7.11090087890625 2.6705692822265625 7.0794677734375 2.6809452587890625 Q 7.04803466796875 2.6913212353515625 7.01416015625 2.6913212353515625 Q 6.98211669921875 2.6913212353515625 6.954803466796875 2.6806400830078125 Q 6.927490234375 2.6699589306640625 6.907806396484375 2.6489018017578125 Q 6.88812255859375 2.6278446728515625 6.876983642578125 2.5964115673828125 Q 6.8658447265625 2.5649784619140625 6.8658447265625 2.5231693798828125 Q 6.8658447265625 2.4892948681640625 6.87530517578125 2.4592350537109375 Q 6.884765625 2.4291752392578125 6.903533935546875 2.4067448193359375 Q 6.92230224609375 2.3843143994140625 6.9500732421875 2.3711918408203125 Q 6.97784423828125 2.3580692822265625 7.0147705078125 2.3580692822265625 Q 7.05047607421875 2.3580692822265625 7.074432373046875 2.3689030224609375 Q 7.098388671875 2.3797367626953125 7.113494873046875 2.3975895458984375 Q 7.12860107421875 2.4154423291015625 7.136383056640625 2.4383305126953125 Q 7.1441650390625 2.4612186962890625 7.147216796875 2.4850224072265625 Q 7.14874267578125 2.4966190869140625 7.149200439453125 2.5085209423828125 Q 7.149658203125 2.5204227978515625 7.149658203125 2.5317143017578125 L 6.9219970703125 2.5317143017578125 M 7.01080322265625 2.4056767041015625 Q 6.990966796875 2.4056767041015625 6.976165771484375 2.4113224560546875 Q 6.96136474609375 2.4169682080078125 6.95098876953125 2.4274967724609375 Q 6.94061279296875 2.4380253369140625 6.934356689453125 2.4532841259765625 Q 6.9281005859375 2.4685429150390625 6.925048828125 2.4874638134765625 L 7.08892822265625 2.4874638134765625 Q 7.08770751953125 2.4697636181640625 7.083282470703125 2.4548100048828125 Q 7.078857421875 2.4398563916015625 7.0697021484375 2.4288700634765625 Q 7.060546875 2.4178837353515625 7.04620361328125 2.4117802197265625 Q 7.0318603515625 2.4056767041015625 7.01080322265625 2.4056767041015625" fill="#337551" fill-rule="nonzero"></path></g></g><defs><clipPath id="SvgjsClipPath14576"><path d=" M -7.01539644866762 -1.0872434226768704 h 6.61539644866762 v 4.856957983049053 h -6.61539644866762 Z"></path></clipPath><clipPath id="a142feab5-5753-4f7f-a395-733805fc046ce9f97ebe-caf9-43de-b7c6-8537f70300cc"><path d=" M -7.482418050809585 3.857717144357413 L 0.06702667571968668 3.857717144357413 L 0.06702667571968668 -1.175246006662102 L -7.482418050809585 -1.175246006662102 Z"></path></clipPath><clipPath id="b142feab5-5753-4f7f-a395-733805fc046ce9f97ebe-caf9-43de-b7c6-8537f70300cc"><path d=" M -7.482418050809585 -1.175246006662102 L 0.06702667571968668 -1.175246006662102 L 0.06702667571968668 3.8575860776086888 L -7.482418050809585 3.8575860776086888 Z"></path></clipPath><clipPath id="c142feab5-5753-4f7f-a395-733805fc046ce9f97ebe-caf9-43de-b7c6-8537f70300cc"><path d=" M -7.482418050809585 -1.175246006662102 L 0.06702667571968668 -1.175246006662102 L 0.06702667571968668 3.8575860776086888 L -7.482418050809585 3.8575860776086888 Z"></path></clipPath></defs></svg>